<?xml version="1.0" encoding="utf-8"?>
<!-- Generator: Adobe Illustrator 19.2.0, SVG Export Plug-In . SVG Version: 6.00 Build 0)  -->
<svg version="1.1" xmlns="http://www.w3.org/2000/svg" xmlns:xlink="http://www.w3.org/1999/xlink" x="0px" y="0px"
	 viewBox="0 0 400 400" style="enable-background:new 0 0 400 400;" xml:space="preserve">
<style type="text/css">
	.st0{fill:none;stroke:#000000;stroke-miterlimit:10;}
	.st1{fill:none;stroke:#CBCBCB;stroke-miterlimit:10;}
	.st2{fill:none;stroke:#7F7F7F;stroke-miterlimit:10;}
	.st3{fill:none;stroke:#8F8F8F;stroke-width:2.01;stroke-linecap:round;stroke-miterlimit:10;}
	.st4{fill:none;stroke:#929292;stroke-width:2.1;stroke-linecap:round;stroke-miterlimit:10;}
	.st5{fill:none;stroke:#909090;stroke-width:1.7;stroke-linecap:round;stroke-miterlimit:10;}
	.st6{fill:none;stroke:#868686;stroke-width:1.27;stroke-linecap:round;stroke-miterlimit:10;}
	.st7{fill:none;stroke:#797979;stroke-width:1.42;stroke-linecap:round;stroke-miterlimit:10;}
	.st8{fill:none;stroke:#8C8C8C;stroke-width:1.13;stroke-linecap:round;stroke-miterlimit:10;}
	.st9{fill:none;stroke:#828282;stroke-width:1.22;stroke-linecap:round;stroke-miterlimit:10;}
	.st10{fill:none;stroke:#949494;stroke-width:1.76;stroke-linecap:round;stroke-miterlimit:10;}
	.st11{fill:none;stroke:#8E8E8E;stroke-width:1.39;stroke-linecap:round;stroke-miterlimit:10;}
	.st12{fill:none;stroke:#8F8F8F;stroke-width:1.03;stroke-linecap:round;stroke-miterlimit:10;}
	.st13{fill:none;stroke:#929292;stroke-width:1.54;stroke-linecap:round;stroke-miterlimit:10;}
	.st14{fill:none;stroke:#939393;stroke-width:1.94;stroke-linecap:round;stroke-miterlimit:10;}
	.st15{fill:none;stroke:#858585;stroke-width:1.68;stroke-linecap:round;stroke-miterlimit:10;}
	.st16{fill:none;stroke:#828282;stroke-width:1.91;stroke-linecap:round;stroke-miterlimit:10;}
	.st17{fill:none;stroke:#8B8B8B;stroke-width:1.73;stroke-linecap:round;stroke-miterlimit:10;}
	.st18{fill:none;stroke:#959595;stroke-width:1.46;stroke-linecap:round;stroke-miterlimit:10;}
	.st19{fill:none;stroke:#848484;stroke-width:2.16;stroke-linecap:round;stroke-miterlimit:10;}
	.st20{fill:none;stroke:#919191;stroke-width:1.52;stroke-linecap:round;stroke-miterlimit:10;}
	.st21{fill:none;stroke:#7E7E7E;stroke-width:1.51;stroke-linecap:round;stroke-miterlimit:10;}
	.st22{fill:none;stroke:#8E8E8E;stroke-width:1.03;stroke-linecap:round;stroke-miterlimit:10;}
	.st23{fill:none;stroke:#828282;stroke-width:2;stroke-linecap:round;stroke-miterlimit:10;}
	.st24{fill:none;stroke:#919191;stroke-width:2.04;stroke-linecap:round;stroke-miterlimit:10;}
	.st25{fill:none;stroke:#898989;stroke-width:1.37;stroke-linecap:round;stroke-miterlimit:10;}
	.st26{fill:none;stroke:#7C7C7C;stroke-width:1.71;stroke-linecap:round;stroke-miterlimit:10;}
	.st27{fill:none;stroke:#8F8F8F;stroke-width:1.75;stroke-linecap:round;stroke-miterlimit:10;}
	.st28{fill:none;stroke:#8B8B8B;stroke-width:0.9589;stroke-linecap:round;stroke-miterlimit:10;}
	.st29{fill:none;stroke:#787878;stroke-width:1.58;stroke-linecap:round;stroke-miterlimit:10;}
	.st30{fill:none;stroke:#949494;stroke-width:1.09;stroke-linecap:round;stroke-miterlimit:10;}
	.st31{fill:none;stroke:#8C8C8C;stroke-width:1.68;stroke-linecap:round;stroke-miterlimit:10;}
	.st32{fill:none;stroke:#8B8B8B;stroke-width:2.07;stroke-linecap:round;stroke-miterlimit:10;}
	.st33{fill:none;stroke:#7E7E7E;stroke-width:1.14;stroke-linecap:round;stroke-miterlimit:10;}
	.st34{fill:none;stroke:#7A7A7A;stroke-width:1.13;stroke-linecap:round;stroke-miterlimit:10;}
	.st35{fill:none;stroke:#808080;stroke-width:2.11;stroke-linecap:round;stroke-miterlimit:10;}
	.st36{fill:none;stroke:#797979;stroke-width:0.9038;stroke-linecap:round;stroke-miterlimit:10;}
	.st37{fill:none;stroke:#7F7F7F;stroke-width:1.7;stroke-linecap:round;stroke-miterlimit:10;}
	.st38{fill:none;stroke:#949494;stroke-width:1.92;stroke-linecap:round;stroke-miterlimit:10;}
	.st39{fill:none;stroke:#8E8E8E;stroke-width:1.81;stroke-linecap:round;stroke-miterlimit:10;}
	.st40{fill:none;stroke:#8F8F8F;stroke-width:1.74;stroke-linecap:round;stroke-miterlimit:10;}
	.st41{fill:none;stroke:#8E8E8E;stroke-width:0.9061;stroke-linecap:round;stroke-miterlimit:10;}
	.st42{fill:none;stroke:#919191;stroke-width:1.86;stroke-linecap:round;stroke-miterlimit:10;}
	.st43{fill:none;stroke:#898989;stroke-width:1.94;stroke-linecap:round;stroke-miterlimit:10;}
	.st44{fill:none;stroke:#787878;stroke-width:2.05;stroke-linecap:round;stroke-miterlimit:10;}
	.st45{fill:none;stroke:#909090;stroke-width:1.35;stroke-linecap:round;stroke-miterlimit:10;}
	.st46{fill:none;stroke:#7B7B7B;stroke-width:1.4;stroke-linecap:round;stroke-miterlimit:10;}
	.st47{fill:none;stroke:#797979;stroke-width:1.34;stroke-linecap:round;stroke-miterlimit:10;}
	.st48{fill:none;stroke:#787878;stroke-width:1.21;stroke-linecap:round;stroke-miterlimit:10;}
	.st49{fill:none;stroke:#818181;stroke-width:1.43;stroke-linecap:round;stroke-miterlimit:10;}
	.st50{fill:none;stroke:#777777;stroke-width:1.97;stroke-linecap:round;stroke-miterlimit:10;}
	.st51{fill:none;stroke:#838383;stroke-width:1.99;stroke-linecap:round;stroke-miterlimit:10;}
	.st52{fill:none;stroke:#868686;stroke-width:1.95;stroke-linecap:round;stroke-miterlimit:10;}
	.st53{fill:none;stroke:#878787;stroke-width:1.19;stroke-linecap:round;stroke-miterlimit:10;}
	.st54{fill:none;stroke:#8B8B8B;stroke-width:1.83;stroke-linecap:round;stroke-miterlimit:10;}
	.st55{fill:none;stroke:#7B7B7B;stroke-width:0.97;stroke-linecap:round;stroke-miterlimit:10;}
	.st56{fill:none;stroke:#868686;stroke-width:1.04;stroke-linecap:round;stroke-miterlimit:10;}
	.st57{fill:none;stroke:#7B7B7B;stroke-width:1.45;stroke-linecap:round;stroke-miterlimit:10;}
	.st58{fill:none;stroke:#808080;stroke-width:2.15;stroke-linecap:round;stroke-miterlimit:10;}
	.st59{fill:none;stroke:#848484;stroke-width:2.03;stroke-linecap:round;stroke-miterlimit:10;}
	.st60{fill:none;stroke:#7D7D7D;stroke-width:1.31;stroke-linecap:round;stroke-miterlimit:10;}
	.st61{fill:none;stroke:#888888;stroke-width:1.96;stroke-linecap:round;stroke-miterlimit:10;}
	.st62{fill:none;stroke:#898989;stroke-width:1.5;stroke-linecap:round;stroke-miterlimit:10;}
	.st63{fill:none;stroke:#7A7A7A;stroke-width:1.33;stroke-linecap:round;stroke-miterlimit:10;}
	.st64{fill:none;stroke:#808080;stroke-width:1.87;stroke-linecap:round;stroke-miterlimit:10;}
</style>
<g id="Calque_1">
	<g>
		<path class="st0" d="M33.8,146.9c1.2-24.8,2.3-49.7,3.2-74.6"/>
		<path class="st0" d="M42.4,76.8c-1.3,22.8-2.5,45.7-3.6,68.6"/>
		<path class="st0" d="M47.8,80.1c-1.1,21.1-2.2,42.2-3.2,63.3"/>
		<path class="st0" d="M53.3,81.6c-1.2,19.9-2.2,39.7-3.2,59.6"/>
		<path class="st0" d="M58.7,83.7c-1,18.2-1.9,36.4-2.8,54.6"/>
		<path class="st0" d="M64.2,86c-1.1,16.3-2.1,32.6-2.9,48.8"/>
		<path class="st0" d="M69.6,86.8c-0.7,13.9-1.5,27.9-2.2,41.8"/>
		<path class="st0" d="M75.1,86l-1.7,36.6"/>
		<path class="st0" d="M80.5,86.4c-0.6,10.9-1.1,21.9-1.6,32.8"/>
		<path class="st0" d="M86,87.2l-1.5,31.9"/>
		<path class="st0" d="M89.9,119.9l1.6-33.2"/>
		<path class="st0" d="M96.9,83.5c-0.6,12.5-1.1,25.1-1.7,37.7"/>
		<path class="st0" d="M100.4,122.6l1.9-41"/>
		<path class="st0" d="M107.8,83l-2,41.3"/>
		<path class="st0" d="M113.3,85.1c-0.8,13.7-1.5,27.4-2.2,41.1"/>
		<path class="st0" d="M116.8,128.2c0.7-14.8,1.3-29.5,1.9-44.3"/>
		<path class="st0" d="M124.2,79.2c-0.9,16.8-1.8,33.6-2.6,50.4"/>
		<path class="st0" d="M126.9,130.8l2.7-56.3"/>
		<path class="st0" d="M135.1,72.7l-2.9,59.6"/>
		<path class="st0" d="M140.5,72.9c-1.1,20.4-2.1,40.7-3.1,61"/>
		<path class="st0" d="M144,134.7c0.8-20.7,1.5-41.3,2-61.9"/>
		<path class="st0" d="M148.4,134l3-63"/>
		<path class="st0" d="M153.8,132.4l3-64.1"/>
		<path class="st0" d="M162.3,64.8l-3.1,65.6"/>
		<path class="st0" d="M164.5,128.4l3.3-68.5"/>
		<path class="st0" d="M170,126.5c1.1-23.8,2.2-47.7,3.3-71.6"/>
		<path class="st0" d="M175.2,126.2l3.5-73.7"/>
		<path class="st0" d="M180.6,126.5l3.6-75.6"/>
		<path class="st0" d="M189.6,49.2l-3.7,77"/>
		<path class="st0" d="M191.6,123.7c1.2-25.1,2.4-50.2,3.4-75.4"/>
		<path class="st0" d="M197.1,120.1c1.2-24,2.3-48,3.4-72.1"/>
		<path class="st0" d="M206,46.2c-1.1,23.4-2.3,46.7-3.6,70"/>
		<path class="st0" d="M208.2,112.1c1.1-23.5,2.2-47,3.2-70.4"/>
		<path class="st0" d="M216.9,36.6c-1.3,24-2.6,48-3.7,72"/>
		<path class="st0" d="M219,103.7l3.3-69.5"/>
		<path class="st0" d="M227.8,35.4l-3,62.5"/>
		<path class="st0" d="M230.7,91.6l2.5-53.1"/>
		<path class="st0" d="M238.7,41.9c-0.8,14.4-1.5,28.9-2.2,43.3"/>
		<path class="st0" d="M244.1,43.8c-0.8,12.1-1.6,24.2-2.3,36.2"/>
		<path class="st0" d="M249.6,44.2c-0.7,10.6-1.3,21.3-1.9,31.9"/>
		<path class="st0" d="M253.7,74.7c0.5-10.4,0.9-20.8,1.4-31.2"/>
		<path class="st0" d="M259,73.6c0.5-10.6,1-21.2,1.4-31.9"/>
		<path class="st0" d="M264.4,71.3l1.5-32"/>
		<path class="st0" d="M270,69.4c0.5-10.7,1-21.5,1.4-32.2"/>
		<path class="st0" d="M275.3,69.7c0.5-10.7,1-21.4,1.5-32.1"/>
		<path class="st0" d="M280.7,72l1.6-32.8"/>
		<path class="st0" d="M287.7,40.2l-1.7,35"/>
		<path class="st0" d="M291.4,78.5l1.8-37.4"/>
		<path class="st0" d="M298.7,44.4c-0.7,12.3-1.3,24.5-1.9,36.8"/>
		<path class="st0" d="M302.6,84.4c0.5-11.9,1-23.9,1.5-35.8"/>
		<path class="st0" d="M309.6,52.1l-1.7,36.2"/>
		<path class="st0" d="M313.2,92.3l1.8-37.6"/>
		<path class="st0" d="M318.7,96l1.8-37.6"/>
		<path class="st0" d="M325.9,61.7l-1.8,36.8"/>
		<path class="st0" d="M329.6,100l1.8-36.6"/>
		<path class="st0" d="M336.8,64.2c-0.7,12.2-1.4,24.5-2.1,36.7"/>
		<path class="st0" d="M342.3,64.5c-0.7,12.8-1.4,25.6-2,38.5"/>
		<path class="st0" d="M345.7,107l2-41.8"/>
		<path class="st0" d="M351,112.6l2.2-46.1"/>
		<path class="st0" d="M356.2,118.2l2.5-51.6"/>
		<path class="st0" d="M362.3,123.2c0.7-19,1.3-38,1.8-57"/>
		<path class="st0" d="M366.8,124.7l2.7-57.7"/>
	</g>
	<g>
		<path class="st0" d="M199.3,188.7c5.6-25.9,11.3-51.6,17.4-77.3"/>
		<path class="st0" d="M202.1,187.5c5.5-26,11.1-52,16.9-78"/>
		<path class="st0" d="M204.3,186.5c5.5-26.5,11.1-52.9,17.1-79.2"/>
		<path class="st0" d="M206.6,185.3c6.1-27,12.4-53.2,17.1-80.3"/>
		<path class="st0" d="M208.7,184.3c6.1-27.1,12-54.3,17.4-81.8"/>
		<path class="st0" d="M211.1,183.1c6.9-28.2,12.9-55,17.3-83.1"/>
		<path class="st0" d="M212.6,182.3c6.1-28.3,12.2-56.5,18.2-84.8"/>
		<path class="st0" d="M214.4,181.5c6.3-28.9,12.6-57.7,18.7-86.6"/>
		<path class="st0" d="M215.7,180.9c1.8-8.7,3.6-17.3,5.3-26c7-20,8-43,14.5-62.6"/>
		<path class="st0" d="M218.2,179.9c6.8-29.9,13.6-59.9,19.6-90.2"/>
		<path class="st0" d="M220.2,179.1c6.5-30.5,13-60.8,20-91.6"/>
		<path class="st0" d="M221,178.7c9-25.9,13.9-51.9,17.9-79.8c1-5,2-10,3.6-13.7"/>
		<path class="st0" d="M225.1,177.3c6.7-31.3,13.4-62.6,19.8-94"/>
		<path class="st0" d="M227.1,176.8c6.8-31.7,13.6-63.4,20.1-95.1"/>
		<path class="st0" d="M228.3,176.5c6.8-32.2,13.9-64.2,21.2-96.1"/>
		<path class="st0" d="M231.3,175.9c6.9-32,13.9-64.1,20.7-96.2"/>
		<path class="st0" d="M233,175.7c7-32.1,14.4-64.2,21.2-96.4"/>
		<path class="st0" d="M235.9,175.3c6.8-32.1,13.6-64.1,20.7-96.1"/>
		<path class="st0" d="M238.3,175.1c6.9-32.1,13.9-64.3,20.7-96.4"/>
		<path class="st0" d="M240.3,174.9c7-32.4,14-64.7,21-97.1"/>
		<path class="st0" d="M241.6,174.8c6.8-32.7,14-65.3,22.1-98"/>
		<path class="st0" d="M245.7,174.4c1.9-9,3.7-18.2,5.3-27.5c1-10,3-19,5-28c5-14,6-29,10-43.2"/>
		<path class="st0" d="M248.1,174.1c7.2-33.4,13.9-66,20.2-99.4"/>
		<path class="st0" d="M249.3,174c7.1-33.3,14.2-66.6,21.4-99.9"/>
		<path class="st0" d="M251.7,173.5c7.2-33.2,14.4-66.5,21.3-99.9"/>
		<path class="st0" d="M254.6,172.9c7-33.4,13.5-65.7,20.8-99.1"/>
		<path class="st0" d="M256.2,172.6c7-32.7,14.1-65.4,21.5-98.1"/>
		<path class="st0" d="M260,172c6.6-32.3,12.8-63.7,20.1-96.4"/>
		<path class="st0" d="M262.4,171.6c6.8-31.6,13.5-63.2,20-94.8"/>
		<path class="st0" d="M264.4,171.2c3.7-18.7,8.1-37,11.5-56.3c2-13,7-24,8.8-36.8"/>
		<path class="st0" d="M267.7,170.8c6.5-30.4,13-60.8,19.4-91.2"/>
		<path class="st0" d="M270.1,170.4c3.2-13.1,6.5-26.1,8.8-39.5c3-17,5-34,10.5-49.8"/>
		<path class="st0" d="M272,170.2c1.3-6.4,2.6-12.8,4-19.3c1-2,2-4,3-6c5-21,7-42,12.9-62.3"/>
		<path class="st0" d="M294.2,83.8c-5.9,28.7-11.9,57.4-17.9,85.9"/>
		<path class="st0" d="M296.5,85c-6.6,28.2-12.7,56.4-18.7,84.6"/>
		<path class="st0" d="M298.9,86.1c-5.7,27.8-11.5,55.5-17.4,83.2"/>
		<path class="st0" d="M301.2,87.3c-5.7,27.2-11.6,54.4-17.4,81.8"/>
		<path class="st0" d="M303.5,88.7c-0.6,1.2-1.6,2.2-1.6,3.2c-5.1,26.5-10.1,51.5-15.4,76.8"/>
		<path class="st0" d="M305.9,90.3c-5.5,26-11.1,52-16.8,78"/>
		<path class="st0" d="M308.2,92.1c-7.1,24.9-9.6,49.9-16,75.6"/>
		<path class="st0" d="M19.2,194.2c2.7-13.8,6.8-27.4,9.8-41.8"/>
		<path class="st0" d="M22.8,194.3c3.3-14,6.4-27.9,8.5-42.1"/>
		<path class="st0" d="M25,194.4c2.9-14.3,5.7-28.5,8.7-42.6"/>
		<path class="st0" d="M26.8,194.6c3.2-14.4,6.3-28.8,9.3-43.4"/>
		<path class="st0" d="M28.9,194.8c3.1-14.6,6.3-29.3,9.4-44.2"/>
		<path class="st0" d="M31.1,195.1c3.4-15,6.7-30.1,9.6-45.3"/>
		<path class="st0" d="M33.3,195.4c3.5-15.8,6.6-31.1,9.8-46.4"/>
		<path class="st0" d="M35.3,195.6c3.3-15.9,6.6-31.7,10.2-47.4"/>
		<path class="st0" d="M36.9,195.6c3.5-16.2,7.1-32.3,10.9-48.3"/>
		<path class="st0" d="M39.4,195.7c3.6-16.4,7.1-32.9,10.7-49.3"/>
		<path class="st0" d="M41.8,195.6c3.6-16.7,7.1-33.5,10.6-50.3"/>
		<path class="st0" d="M43.8,195.3c3.6-17.1,7.3-34.2,11-51.1"/>
		<path class="st0" d="M46.1,195c3.7-17.4,7.4-34.7,11.1-52.1"/>
		<path class="st0" d="M48.7,194.4c3.7-17.6,6.9-35.2,10.8-52.8"/>
		<path class="st0" d="M50.2,194.1c0.9-4,1.8-8.1,2.7-12.1c3-14,5-28,8.9-41.9"/>
		<path class="st0" d="M52.3,193.6c4-18.6,7.9-37.1,11.9-55.5"/>
		<path class="st0" d="M53.6,193.4c4.1-19.2,8.4-38.4,12.9-57.6"/>
		<path class="st0" d="M56.2,193c4.3-20,8.5-39.9,12.7-59.8"/>
		<path class="st0" d="M58.1,192.8c3.2-14.5,6.4-29.1,9.8-43.9c1-6,3-12,3.3-18.4"/>
		<path class="st0" d="M59.4,192.7c4.6-21.6,9.3-43.1,14.2-64.6"/>
		<path class="st0" d="M61.9,192.5c4.8-22.1,9.5-44.2,14-66.4"/>
		<path class="st0" d="M63.6,192.3c4.9-22.5,9.8-45.1,14.7-67.8"/>
		<path class="st0" d="M66,191.9c4.9-22.8,9.7-45.5,14.7-68.3"/>
		<path class="st0" d="M68.6,191.5c4.6-22.7,9.1-45.3,14.4-68"/>
		<path class="st0" d="M71,191.1c4.7-22.5,9.4-45,14.3-67.5"/>
		<path class="st0" d="M72.9,190.8c4.9-22.3,9.8-44.6,14.7-66.9"/>
		<path class="st0" d="M75.8,190.3c4.7-22,9.5-44,14.3-66"/>
		<path class="st0" d="M79.3,189.8c4.7-21.6,9.1-43.3,13.1-65.1"/>
		<path class="st0" d="M81.1,189.7c4.9-21.4,9.6-42.8,13.6-64.4"/>
		<path class="st0" d="M83.3,189.5c4.6-21.2,9.2-42.4,13.7-63.6"/>
		<path class="st0" d="M86.4,189.4c4.5-20.9,8.8-41.9,13-62.8"/>
		<path class="st0" d="M88.1,189.3c2.9-12.7,5.8-25.5,8.8-38.4c2-8,3-16,4.8-23.7"/>
		<path class="st0" d="M90.4,189.1c4.4-20.4,8.9-40.8,13.6-61.2"/>
		<path class="st0" d="M93.7,188.6c4.2-20,8.5-40,12.7-60.1"/>
		<path class="st0" d="M95.8,188.3c4.2-19.7,8.5-39.4,13-58.9"/>
		<path class="st0" d="M98.7,188c4.1-19.1,8.2-38.2,12.4-57.7"/>
		<path class="st0" d="M100.6,187.8c4.1-19,8.3-37.9,12.9-56.7"/>
		<path class="st0" d="M103.8,187.6c4-18.5,8-37.1,12-55.7"/>
		<path class="st0" d="M106.6,187.5c3.6-16.3,7.3-32.8,11.4-49.6c0-2,0-3,0.2-5.1"/>
		<path class="st0" d="M108.2,187.5c3.9-18,8-36,12.3-53.9"/>
		<path class="st0" d="M111.7,187.3c3.7-17.7,7.4-35.3,11.1-53"/>
		<path class="st0" d="M114,187.1c3.7-17.5,7.5-35,11.2-52.4"/>
		<path class="st0" d="M115.8,187c3.8-17.3,7.7-34.6,11.7-51.8"/>
		<path class="st0" d="M119.3,186.7c3.7-17,7.2-34,10.6-50.9"/>
		<path class="st0" d="M121.4,186.6c3.6-16.7,7.3-33.4,10.8-50.1"/>
		<path class="st0" d="M123.7,186.4c3.4-16.4,7-32.8,10.9-49.3"/>
		<path class="st0" d="M126.6,186.3c3.5-16.2,6.9-32.3,10.4-48.4"/>
		<path class="st0" d="M129.2,186.3c3.6-15.9,7-31.7,10.1-47.7"/>
		<path class="st0" d="M131.3,186.2c3.4-15.7,6.9-31.5,10.4-47.2"/>
		<path class="st0" d="M134.1,186c3.4-15.6,6.7-31.1,9.9-46.7"/>
		<path class="st0" d="M136.6,185.7c3.3-15.5,6.5-31,9.7-46.5"/>
		<path class="st0" d="M138.7,185.4c3.4-15.5,6.7-31.1,10-46.6"/>
		<path class="st0" d="M141,185.1c3.3-15.6,6.7-31.2,10-46.8"/>
		<path class="st0" d="M143,184.9c3.5-15.7,6.9-31.5,10.3-47.3"/>
		<path class="st0" d="M145.9,184.8c3.4-16,6.6-32,9.8-48"/>
		<path class="st0" d="M147.3,184.9c3.5-16.3,7-32.6,10.7-48.9"/>
		<path class="st0" d="M150.1,185.1c3.6-16.6,7-33.3,10.3-50"/>
		<path class="st0" d="M151.9,185.3c3.7-17,7.4-34,10.9-51.2"/>
		<path class="st0" d="M153.4,185.5c0.5-3.2,1.1-6.4,1.6-9.6c2-12,7-22,9-34c0-3,0-6,1.1-8.6"/>
		<path class="st0" d="M156.2,185.9c0.8-3.5,1.5-7,2.3-10.5c0.9-4.2,1.9-8.3,2.8-12.5c0.8-3.6,0.4-7.2,1.2-10.8
			c1.3-6.7,4.6-13,5-19.9"/>
		<path class="st0" d="M157.6,186.2c3.9-18.3,7.9-36.6,12.1-54.8"/>
		<path class="st0" d="M160.4,186.7c3.9-18.6,7.8-37.2,11.7-55.8"/>
		<path class="st0" d="M162.4,187c1.6-8.3,3.1-16.6,4.6-25.1c2-11,6-21,7.5-31.2"/>
		<path class="st0" d="M164.1,187.3c3.9-18.8,8-37.6,12.8-56.5"/>
		<path class="st0" d="M167.3,187.6c4-18.9,8-37.7,11.9-56.7"/>
		<path class="st0" d="M169.2,187.8c0.9-4.9,1.9-9.9,2.8-14.9c3-15,7-28,9.6-41.8"/>
		<path class="st0" d="M171.5,188c1.5-6.3,2.9-12.7,4.5-19c3-13,5-25,7.9-37.8"/>
		<path class="st0" d="M174,188.1c4.1-19,8.1-38,12.2-57"/>
		<path class="st0" d="M175.1,188.2c4.2-19.3,8.5-38.4,13.4-57.7"/>
		<path class="st0" d="M177.8,188.3c4.2-19.6,8.6-39.3,13.1-58.8"/>
		<path class="st0" d="M180.8,188.4c4.3-20,8.5-40.1,12.5-60.3"/>
		<path class="st0" d="M182.6,188.5c4.6-20.5,9-41.1,13-61.8"/>
		<path class="st0" d="M184.1,188.6c4.5-21.1,9-42.2,13.8-63.4"/>
		<path class="st0" d="M186.2,188.8c4.7-21.8,9.4-43.5,14.1-65.3"/>
		<path class="st0" d="M187.3,188.9c4.8-22.5,9.9-44.9,15.4-67.2"/>
		<path class="st0" d="M189.7,189.2c5-23.1,10-46.1,15.3-69.3"/>
		<path class="st0" d="M192.4,189.6c5-23.7,10-47.5,14.9-71.3"/>
		<path class="st0" d="M194.1,189.8c5.2-24.3,10.4-48.7,15.6-73.2"/>
		<path class="st0" d="M195.8,190c5.3-25.1,10.7-50.1,16.2-75"/>
		<path class="st0" d="M199,188.8c5.3-25.2,10.4-50.4,15.4-75.5"/>
		<path class="st0" d="M310.6,94c-5.5,24.5-10.7,48.9-15.9,73.2"/>
		<path class="st0" d="M312.9,95.8c-4.8,23.6-9.7,47.1-14.8,70.6"/>
		<path class="st0" d="M315.3,97.4c-5,22.8-9.9,45.6-14.7,68.4"/>
		<path class="st0" d="M317.6,99.1c-4.7,22-9.4,44.1-14.2,66.1"/>
		<path class="st0" d="M320,100.6c-4.9,21.5-9.3,42.7-13.8,64"/>
		<path class="st0" d="M322.3,101.8c-4.4,20.8-8.8,41.6-13.2,62.3"/>
		<path class="st0" d="M324.7,102.8c-0.7,5.1-1.7,9.1-2.7,14.1c-3.7,15.8-7.3,31.5-10.9,47"/>
		<path class="st0" d="M327,103.6c-4.4,20-8.8,40.1-13.1,60.2"/>
		<path class="st0" d="M329.4,104.2c-4,19.9-8.2,39.8-12.3,59.6"/>
		<path class="st0" d="M331.7,104.7c-3.9,19.8-8,39.5-12.3,59.3"/>
		<path class="st0" d="M334,105.2c-4.4,19.6-8.7,39.2-12.9,58.9"/>
		<path class="st0" d="M336.4,105.6c-4,19.6-8.1,39.2-12.3,58.8"/>
		<path class="st0" d="M338.7,106.3c-3.8,13.6-5.8,27.6-8.8,42.6c-1.3,5.3-2.5,10.5-3.8,15.7"/>
		<path class="st0" d="M341.1,107.3c-4.8,19.3-6.9,38.1-12.9,57.7"/>
		<path class="st0" d="M343.4,108.6c-4.1,19-8.2,37.9-12.3,56.8"/>
		<path class="st0" d="M345.8,110.3c-3.6,18.6-7.4,36.8-12,55.4"/>
		<path class="st0" d="M348.1,112.5c-3.8,18-7.5,35.8-11.3,53.6"/>
		<path class="st0" d="M350.5,115.1c-3.8,17-7.6,34.1-11.3,51.3"/>
		<path class="st0" d="M352.8,117.7c-3.9,16.3-7.6,32.5-11.2,48.8"/>
		<path class="st0" d="M355.2,120.4c-3.1,15.4-6.3,30.8-9.5,46.2"/>
		<path class="st0" d="M357.5,122.8c-3.4,14.6-6.7,29.2-9.9,43.8"/>
		<path class="st0" d="M359.9,125c-2.9,13.8-5.9,27.6-8.8,41.4"/>
		<path class="st0" d="M362.2,126.9c-2.6,13.1-5.2,26.2-8,39.2"/>
		<path class="st0" d="M364.6,128.3c-3.3,12.7-6.3,25.1-9,37.7"/>
		<path class="st0" d="M366.9,129.1c-2.5,12.2-5,24.3-7.6,36.4"/>
		<path class="st0" d="M369.2,129.4c-2.5,12-5,24-7.6,35.9"/>
	</g>
	<g>
		<path class="st0" d="M56.9,198.1c0.3-0.8,0.6-1.6,0.9-2.4"/>
		<path class="st0" d="M59.9,199.2c0.5-1.3,1-2.6,1.5-3.9"/>
		<path class="st0" d="M62.8,200.7c0.7-2,1.4-3.9,2.1-5.9"/>
		<path class="st0" d="M65.5,202.1c1-2.6,2-5.3,3-8"/>
		<path class="st0" d="M68.9,202.1c1-2.8,2-5.7,3-8.5"/>
		<path class="st0" d="M72.1,202c1.1-3,2.3-6,3.4-9"/>
		<path class="st0" d="M79,192.6c-1,3.1-2,6.2-3.1,9.2"/>
		<path class="st0" d="M79.2,201.7c1.1-3.1,2.3-6.2,3.4-9.3"/>
		<path class="st0" d="M83.2,201.6c1-3.1,2-6.2,3-9.3"/>
		<path class="st0" d="M86.3,201.4c1.1-3.2,2.3-6.3,3.4-9.5"/>
		<path class="st0" d="M89.4,201.4c1.3-3.3,2.6-6.7,3.8-10"/>
		<path class="st0" d="M92.9,201.4c1.3-3.5,2.6-6.9,3.8-10.4"/>
		<path class="st0" d="M96.2,201.5c1.4-3.6,2.7-7.2,4.1-10.8"/>
		<path class="st0" d="M99.7,201.6c1.4-3.7,2.7-7.3,4.1-11"/>
		<path class="st0" d="M103.5,201.5c1.3-3.7,2.6-7.4,3.9-11.1"/>
		<path class="st0" d="M107.3,201.2c1.2-3.7,2.4-7.3,3.6-11"/>
		<path class="st0" d="M110.3,200.8c1.4-3.6,2.8-7.3,4.2-10.9"/>
		<path class="st0" d="M114.2,200.2c1.3-3.5,2.5-7,3.8-10.6"/>
		<path class="st0" d="M117.7,199.6c1.3-3.4,2.6-6.8,3.9-10.2"/>
		<path class="st0" d="M121.8,198.8c1.1-3.2,2.2-6.4,3.3-9.5"/>
		<path class="st0" d="M125.4,198.2c1.1-3,2.2-6,3.2-9"/>
		<path class="st0" d="M128.9,197.7c1.1-2.9,2.2-5.8,3.3-8.8"/>
		<path class="st0" d="M132.7,197.5c1-3,2.1-6,3.1-9"/>
		<path class="st0" d="M135.8,197.6c1.2-3.2,2.3-6.4,3.4-9.5"/>
		<path class="st0" d="M139.3,197.9c1.2-3.4,2.4-6.8,3.5-10.1"/>
		<path class="st0" d="M142.6,198.3c1.3-3.5,2.5-6.9,3.8-10.4"/>
		<path class="st0" d="M147,198.8c0.2-0.6,0.5-1.3,0.7-1.9c1-3,1-6,2.2-8.6"/>
		<path class="st0" d="M149.8,199c1.2-3.4,2.5-6.7,3.7-10.1"/>
		<path class="st0" d="M153.5,198.9c1.2-3.1,2.3-6.3,3.5-9.4"/>
		<path class="st0" d="M157.5,198.4c1-2.8,2-5.5,3.1-8.3"/>
		<path class="st0" d="M162,197.3c0.7-2.2,1.5-4.5,2.2-6.7"/>
		<path class="st0" d="M165.7,196.4c0.7-1.8,1.3-3.7,2-5.5"/>
		<path class="st0" d="M169.4,195.5c0.6-1.5,1.2-3,1.8-4.4"/>
		<path class="st0" d="M173.6,194.6c0.4-1.1,0.8-2.3,1.2-3.4"/>
	</g>
	<g>
		<path class="st1" d="M73.9,206c0.6,1.7,1.3,3.5,1.9,5.2"/>
		<path class="st1" d="M80.3,214.5c-1.2-2.9-2.4-5.7-3.6-8.6"/>
		<path class="st1" d="M83.9,215.8c-1.5-3.4-3-6.8-4.6-10.1"/>
		<path class="st1" d="M86.3,216.2c-1.5-3.5-3-7-4.3-10.6"/>
		<path class="st1" d="M89.6,216.6c-1.6-3.7-3.3-7.4-4.9-11.1"/>
		<path class="st1" d="M92,217c-1.6-3.8-3.1-7.7-4.7-11.5"/>
		<path class="st1" d="M94.9,217.3c-1.6-4-3.3-8-4.9-11.9"/>
		<path class="st1" d="M97.8,217.6c-1.7-4.1-3.4-8.2-5.1-12.2"/>
		<path class="st1" d="M100.6,217.8c-1.7-4.1-3.5-8.3-5.2-12.4"/>
		<path class="st1" d="M103.2,217.9c-1.7-4.1-3.4-8.3-5.1-12.4"/>
		<path class="st1" d="M106.1,218c-1.8-4.1-3.5-8.3-5.3-12.4"/>
		<path class="st1" d="M108.4,217.9c-1.7-4.1-3.4-8.2-5-12.3"/>
		<path class="st1" d="M111.3,217.6c-1.7-4.1-3.5-8.1-5.2-12.2"/>
		<path class="st1" d="M114.2,217.4c-1.8-4.1-3.7-8.2-5.4-12.3"/>
		<path class="st1" d="M117.1,217.4c-1.9-4.2-3.8-8.4-5.7-12.7"/>
		<path class="st1" d="M120.4,218.1c0,0,0-0.1-0.1-0.1c-2-5-5-9-6.2-13.6"/>
		<path class="st1" d="M124.1,218.6c-1.6-3.6-3.1-7.1-4.7-10.7c-1-1-2-3-2.5-4.1"/>
		<path class="st1" d="M126.3,218.5c-2.3-5-4.5-10.1-6.8-15.1"/>
		<path class="st1" d="M128.2,218.2c-0.9-2.1-1.9-4.2-2.8-6.3c-1-3-1-6-3.2-9"/>
		<path class="st1" d="M131.1,217.6c-2.1-5.1-4.2-10.1-6.2-15.2"/>
		<path class="st1" d="M134.4,216.9c-2.2-5-4.5-9.9-6.8-14.9"/>
		<path class="st1" d="M136.9,216.5c-2.4-4.9-4.5-9.8-6.7-14.8"/>
		<path class="st1" d="M138.8,216.3c-2.3-4.8-4.4-9.7-5.9-14.8"/>
		<path class="st1" d="M142.3,216.5c-2.2-5-4.4-10-6.6-15"/>
		<path class="st1" d="M145,217.2c-2.2-5.1-4.5-10.3-6.7-15.4"/>
		<path class="st1" d="M147.3,217.9c-2.2-5.2-4.3-10.5-6.3-15.9"/>
		<path class="st1" d="M151.7,219.2c-2.6-5.6-5.3-11.2-8-16.8"/>
		<path class="st1" d="M153.5,219.4c-2.4-5.6-4.7-11.1-7.1-16.7"/>
		<path class="st1" d="M155.4,219.4c-2.1-5.5-4.3-11-6.4-16.5"/>
		<path class="st1" d="M158.9,218.6c-2.4-5.2-4.7-10.4-7.1-15.6"/>
		<path class="st1" d="M161.1,217.4c-2.2-4.8-4.5-9.7-6.7-14.5"/>
		<path class="st1" d="M162.6,216.5c-1.9-4.6-3.7-9.2-5.5-13.9"/>
		<path class="st1" d="M165.2,214.3c-1.8-4.1-3.6-8.2-5.4-12.3"/>
		<path class="st1" d="M167.3,212.4c-1.6-3.7-3.2-7.4-4.8-11.1"/>
		<path class="st1" d="M169.3,210.7c-1.4-3.3-2.8-6.7-4.1-10"/>
		<path class="st1" d="M171.7,208.9c-1.3-3-2.6-5.9-3.9-8.9"/>
		<path class="st1" d="M174,207.7c-1.1-2.7-2.3-5.5-3.4-8.2"/>
		<path class="st1" d="M177.1,206.7c-1.1-2.7-2.3-5.4-3.9-7.8"/>
		<path class="st1" d="M179,206.7c-1.1-2.8-2.1-5.6-3.1-8.4"/>
		<path class="st1" d="M183,207.8c-1.5-3.3-3-6.6-4.5-9.9"/>
		<path class="st1" d="M186.2,209.1c-1.6-3.9-3.3-7.9-4.9-11.8"/>
		<path class="st1" d="M189.3,210.3c-1.8-4.5-3.6-9-5.3-13.6"/>
		<path class="st1" d="M192.9,210.8c-2.1-4.9-4.2-9.9-6.3-14.8"/>
		<path class="st1" d="M196,211c-2.2-5.2-4.4-10.4-6.7-15.6"/>
		<path class="st1" d="M198.9,211.2c-2.3-5.5-4.6-11-6.9-16.5"/>
		<path class="st1" d="M202.9,211.8c-2.7-6-5.5-12-8.2-18"/>
		<path class="st1" d="M205.7,212.4c-2.8-6.5-5.6-13-8.3-19.5"/>
		<path class="st1" d="M209.4,213.3c-3.4-7.1-6.6-14.2-9.4-21.5"/>
		<path class="st1" d="M213.4,214.2c-3.5-7.9-7-15.8-10.7-23.7"/>
		<path class="st1" d="M217.3,214.7c-3.9-8.5-7.9-17.1-11.9-25.5"/>
		<path class="st1" d="M219.7,215c-3.9-9.1-7.8-18.1-11.6-27.2"/>
		<path class="st1" d="M223.4,215.5c-4.1-9.7-8.3-19.4-12.6-29.1"/>
		<path class="st1" d="M226.5,216.5c-4.4-10.5-8.7-21-13.1-31.3"/>
		<path class="st1" d="M230.6,218.3c-4.9-11.3-9.7-22.7-14.4-34.1"/>
		<path class="st1" d="M235.4,220.6c-5.6-12.4-10.1-25.7-16.6-37.6"/>
		<path class="st1" d="M237.8,221.8c-5.5-13.3-10.9-26.5-16.3-39.8"/>
		<path class="st1" d="M242.7,224.3c-6.2-14.3-12.5-28.5-18.5-43.2"/>
		<path class="st1" d="M247.7,227.6c-6.9-15.7-13.8-31.5-20.9-47.2"/>
		<path class="st1" d="M250.5,229.4c-7-16.4-14-32.9-21-49.5"/>
		<path class="st1" d="M254.5,231.3c-7.2-17.3-14.6-34.6-22.3-51.8"/>
		<path class="st1" d="M257.8,232.3c-7.3-17.8-17.1-34.6-22.9-53"/>
		<path class="st1" d="M261.3,232.9c-7.9-18-15.7-35.9-23.7-53.8"/>
		<path class="st1" d="M264.5,232.9c-8.2-18-16.3-36.1-24.2-54.1"/>
		<path class="st1" d="M265.6,232.9c-7.6-18-15.2-36.1-22.6-54.3"/>
		<path class="st1" d="M268.1,233.1c-7.5-18.3-15-36.5-22.4-54.8"/>
		<path class="st1" d="M271.5,234.1c-7.8-18.8-15.5-37.5-23.1-56.2"/>
		<path class="st1" d="M276.2,236.2c-8.5-19.6-16.9-39.2-25.2-58.8"/>
		<path class="st1" d="M281,237.5c-4-9.1-8-18.2-11.6-27.6c-5-11-10-22-15.7-33.1"/>
		<path class="st1" d="M283,237.6c-0.3-1.8,0.2-4-0.6-5.6c-9-19-18-37-26-55.6"/>
		<path class="st1" d="M285.9,237.3c-7.8-17.4-15.7-34.8-23.5-52.4c-1-3-1-6-3.3-9.1"/>
		<path class="st1" d="M289.4,237c-9.4-20.5-18.6-41-27.6-61.6"/>
		<path class="st1" d="M290,237c-8.5-20.7-17-41.4-25.5-62"/>
		<path class="st1" d="M292.9,236.7c-8.6-20.6-17.1-41.3-25.8-62.1"/>
		<path class="st1" d="M295.2,236.5c-8.5-20.8-17-41.5-25.4-62.2"/>
		<path class="st1" d="M298.2,236.1c-8.6-20.7-17.2-41.4-25.7-62.1"/>
		<path class="st1" d="M301,235.6c-8.6-20.6-17.3-41.3-25.9-62"/>
		<path class="st1" d="M305.3,234.7c-9.2-20.5-18.3-41-27.5-61.3"/>
		<path class="st1" d="M307,234.3c-9-20.4-17.9-40.8-26.5-61.1"/>
		<path class="st1" d="M308.9,233.8c-8.5-20.3-17.1-40.6-25.7-60.8"/>
		<path class="st1" d="M311.4,233c-4.3-9.7-8.6-19.5-13-29.1c-2-11-10-20-12.5-31.3"/>
		<path class="st1" d="M316,231.5c-1.2-2.8-2.5-5.7-3.7-8.5c-8-17-16-34-23.8-50.7"/>
		<path class="st1" d="M316.8,231.2c-8.6-19.9-17.1-39.7-25.5-59.6"/>
		<path class="st1" d="M319,230.4c-8.6-19.7-17-39.5-25.1-59.4"/>
		<path class="st1" d="M321.9,229.4c-8.5-19.8-17.1-39.4-25.3-58.9"/>
		<path class="st1" d="M325,228.2c-8.5-19.5-17-39-25.8-58.4"/>
		<path class="st1" d="M328.3,226.9c-4.3-8.2-8.4-15.4-11-24c-4-12-13-22-15.4-33.8"/>
		<path class="st1" d="M330,226.4c-8.4-19.2-16.9-38.5-25.3-57.8"/>
		<path class="st1" d="M332.9,225.6c-9.2-18.9-18.8-37.5-25.6-57.4"/>
		<path class="st1" d="M333.8,225.4c-2.3-5.8-4.7-11.6-7.2-17.3c-5.9-13.3-11.5-26.6-16.6-40.2"/>
		<path class="st1" d="M337.6,225.1c-8.1-19.2-16.4-38.3-24.8-57.3"/>
		<path class="st1" d="M340.5,224.5c-3.1-7.5-6.2-15-9.1-22.6c-5-12-10-23-16-34.1"/>
		<path class="st1" d="M342.4,223.7c-5.5-12.6-10.9-25.2-16.1-37.7c-3-6-5-12-8.3-18"/>
		<path class="st1" d="M343.9,222.9c-7.6-18.3-15.3-36.5-23.1-54.7"/>
		<path class="st1" d="M346.4,221c-7.6-17.5-15.3-35-23-52.5"/>
		<path class="st1" d="M348.6,219.2c-7.5-16.8-15-33.6-22.5-50.3"/>
		<path class="st1" d="M349.8,218.3c-7-16.3-13.9-32.6-20.9-49"/>
		<path class="st1" d="M351.3,217.1c-6.8-15.7-12.8-31.8-19.8-47.5"/>
		<path class="st1" d="M353.3,215.6c-6.4-15.1-12.8-30.3-19.1-45.6"/>
		<path class="st1" d="M355.9,214.1c-6.3-14.6-12.7-29.3-19.1-43.9"/>
		<path class="st1" d="M359.2,212.5c-6.2-14.1-12.6-28.2-19.6-42.1"/>
		<path class="st1" d="M360.8,211.7c-3.1-6.5-6.3-13-8.4-19.8c-3-7-6-14-10.2-21.3"/>
		<path class="st1" d="M361.4,211.4c-5.6-13.5-11.1-27.1-16.4-40.8"/>
		<path class="st1" d="M365.4,209.6c-5.9-13-11.8-26-17.8-39.1"/>
		<path class="st1" d="M366.5,209.2c-5.5-13-10.9-25.9-16.3-38.8"/>
		<path class="st1" d="M369.3,208.1c-5.5-12.6-11-25.3-16.4-38"/>
		<path class="st1" d="M372,207.1c-5.4-12.4-10.8-24.9-16.3-37.3"/>
		<path class="st1" d="M373.7,206.5c-4.9-12.4-9.9-24.7-15.4-37"/>
	</g>
	<g>
		<path class="st0" d="M80.5,216.2c0.1,0.4,0.2,0.8,0.3,1.1"/>
		<path class="st0" d="M83.4,218.8c-0.1-0.5-0.3-1-0.4-1.5"/>
		<path class="st0" d="M86.1,220.4c-0.2-0.9-0.4-1.8-0.6-2.7"/>
		<path class="st0" d="M89,222.1c-0.3-1.4-0.7-2.7-1-4.1"/>
		<path class="st0" d="M91.6,223.6c-0.4-1.7-0.8-3.5-1.2-5.2"/>
		<path class="st0" d="M94.8,225.5c-0.6-2.3-1.2-4.5-1.9-6.8"/>
		<path class="st0" d="M97.3,227.1c-0.6-2.7-1.3-5.4-1.9-8"/>
		<path class="st0" d="M100.2,228.7c-0.8-3.2-1.5-6.3-2.3-9.5"/>
		<path class="st0" d="M102.8,230.1c-0.8-3.5-1.6-7.1-2.5-10.6"/>
		<path class="st0" d="M105.8,231.5c-1-4-1.9-7.9-2.9-11.9"/>
		<path class="st0" d="M108.3,232.8c-1-4.3-2-8.7-2.9-13"/>
		<path class="st0" d="M111.3,234.1c-1.2-4.8-2.3-9.6-3.5-14.4"/>
		<path class="st0" d="M113.5,234.8c-1-5.1-2.1-10.2-3.2-15.4"/>
		<path class="st0" d="M116.9,235.8c-1.4-5.5-2.7-11.1-4.1-16.6"/>
		<path class="st0" d="M119.2,236.5c-1.3-5.8-2.6-11.6-3.9-17.4"/>
		<path class="st0" d="M121.9,237.3c-1.4-6-2.8-12-4.1-18.1"/>
		<path class="st0" d="M124.6,238.2c-1.4-6.2-2.9-12.3-4.4-18.5"/>
		<path class="st0" d="M127,238.9c-2.8-5.6-1.7-12.4-4.2-18.7"/>
		<path class="st0" d="M129.6,239.8c-1.5-6.5-2.9-13-4.4-19.5"/>
		<path class="st0" d="M132.6,241c-1.6-7-3.2-14-4.8-21"/>
		<path class="st0" d="M135.1,242.1c-1.6-7.5-3.3-15-4.9-22.5"/>
		<path class="st0" d="M137.9,243.2c-1.8-8.1-3.5-16.1-5.2-24.2"/>
		<path class="st0" d="M141,244.3c-2-8.5-3.9-17.1-5.8-25.8"/>
		<path class="st0" d="M143.2,245c-2-9-3.8-18-5.5-26.9"/>
		<path class="st0" d="M147.5,246.3c-2.2-9.5-4.5-19-7.4-28.4"/>
		<path class="st0" d="M149.6,246.8c-2.3-9.5-4.6-19.1-6.9-28.6"/>
		<path class="st0" d="M152.1,247.2c-2.4-9.5-4.6-19-7-28.4"/>
		<path class="st0" d="M153.3,247.3c-2-9.2-3.9-18.5-5.7-27.7"/>
		<path class="st0" d="M156.6,247.4c-2.1-9-4.3-18-6.5-27"/>
		<path class="st0" d="M158.8,247.4c-2.1-8.8-4.2-17.6-6.3-26.4"/>
		<path class="st0" d="M161,247.1c-2-8.6-3.9-17.3-6-25.9"/>
		<path class="st0" d="M163.1,246.9c-2-8.6-3.9-17.3-5.6-25.9"/>
		<path class="st0" d="M166.1,246.3c-2.1-8.8-4.1-17.6-6.1-26.3"/>
		<path class="st0" d="M168.8,245.7c-2.2-9.1-4.3-18.2-6.3-27.3"/>
		<path class="st0" d="M172.2,244.8c-2.4-9.4-4.8-18.9-7.2-28.3"/>
		<path class="st0" d="M174.4,244.2c-2.4-10-4.7-19.9-6.9-29.9"/>
		<path class="st0" d="M177.3,243.5c-1.1-4.2-2.3-8.5-3.6-12.8c-1-6-2-12-3.8-18.5"/>
		<path class="st0" d="M180.2,242.8c-2.6-10.8-5.2-21.6-7.8-32.5"/>
		<path class="st0" d="M182.2,242.3c-2.5-11.1-5-22.1-7.3-33.2"/>
		<path class="st0" d="M185.1,241.7c-2.2-11.1-4.2-21.8-7.7-33.3"/>
		<path class="st0" d="M188.3,241.4c-2.7-11-5.5-22-8.4-33"/>
		<path class="st0" d="M189.7,241.4c-2.5-10.8-5-21.5-7.4-32.3"/>
		<path class="st0" d="M191.8,241.4c-2.3-10.5-4.7-20.9-6.9-31.3"/>
		<path class="st0" d="M194,241.6c-2.3-10.2-4.6-20.3-6.7-30.4"/>
		<path class="st0" d="M196.9,241.9c-2.4-9.9-4.7-19.9-7.1-29.9"/>
		<path class="st0" d="M198.7,242.4c-2.2-10-4.3-19.9-6.4-29.9"/>
		<path class="st0" d="M201.7,243.4c-2.3-10.3-4.6-20.6-6.9-30.9"/>
		<path class="st0" d="M204,244.3c-2.2-10.6-4.3-21.1-6.7-31.6"/>
		<path class="st0" d="M207.5,245.8c-2.6-10.9-5.2-21.9-7.8-32.9"/>
		<path class="st0" d="M210.4,247.2c-2.7-11.3-5.5-22.6-8.2-33.9"/>
		<path class="st0" d="M212.7,248.5c-2.7-11.5-5.4-23.1-8-34.7"/>
		<path class="st0" d="M215.8,250.2c-3-11.9-5.8-23.8-8.6-35.8"/>
		<path class="st0" d="M219,252c-3.1-12.4-6.2-24.7-9.3-37.1"/>
		<path class="st0" d="M219.9,252.5c-1.3-4.2-2.4-8.5-3.2-12.9c-1-8-1-17-4.5-24.1"/>
		<path class="st0" d="M223.7,254.7c-3.1-12.9-6.1-25.7-9-38.6"/>
		<path class="st0" d="M227.1,256.7c-2.3-12.3-4.8-24.2-8.4-37.1c0-1-1-2-1.6-3.3"/>
		<path class="st0" d="M229,257.7c-3.1-13.7-6.2-27.3-9.4-41.1"/>
		<path class="st0" d="M232.1,259.3c-3.3-14.1-6.6-28.3-10-42.3"/>
		<path class="st0" d="M234.8,260.5c-3.5-14.3-6.9-28.7-10.2-43.1"/>
		<path class="st0" d="M237.7,261.7c-3.5-14.5-7-29-10.7-43.5"/>
		<path class="st0" d="M240.3,262.7c-3.5-14.4-7.1-28.9-10.7-43.4"/>
		<path class="st0" d="M243.4,263.6c-3.5-14.4-7.3-28.8-11.3-43.1"/>
		<path class="st0" d="M244.3,263.8c-3.4-14-6.7-28-9.8-42"/>
		<path class="st0" d="M247.2,264.3c-3.3-13.8-6.7-27.6-10.2-41.4"/>
		<path class="st0" d="M248.2,264.3c-3-13.4-5.9-26.8-8.7-40.2"/>
		<path class="st0" d="M251.4,264.3c-3-13-6.1-26-9.4-39"/>
		<path class="st0" d="M252.8,264.3c-2.9-12.4-5.7-24.9-8.3-37.4"/>
		<path class="st0" d="M255.3,264.1c-2.8-11.8-5.6-23.6-8.3-35.5"/>
		<path class="st0" d="M257.2,263.8c-2.6-11.1-5.2-22.3-7.8-33.6"/>
		<path class="st0" d="M259.5,263.5c-2.5-10.6-5-21.2-7.6-31.8"/>
		<path class="st0" d="M261.4,263.2c-2.4-10.1-4.8-20.1-7-30.3"/>
		<path class="st0" d="M263.6,262.7c-2.3-9.7-4.6-19.4-6.8-29"/>
		<path class="st0" d="M266.1,262.2c-2.3-9.3-4.5-18.6-6.8-27.9"/>
		<path class="st0" d="M268,261.8c-2.2-9.1-4.2-18.1-6.1-27.2"/>
		<path class="st0" d="M270.7,261.4c-2.1-8.9-4.2-17.8-6.3-26.7"/>
		<path class="st0" d="M273.2,261c-2.1-8.8-4.3-17.6-6.4-26.4"/>
		<path class="st0" d="M274.8,260.8c-1.9-8.6-3.8-17.3-5.5-25.9"/>
		<path class="st0" d="M277.3,260.5c-1.9-8.2-3.8-16.5-5.5-24.8"/>
		<path class="st0" d="M279.7,260.5c-1.8-7.9-3.6-15.7-5.4-23.6"/>
		<path class="st0" d="M282.1,260.5c-1.8-7.5-3.6-15-5.4-22.5"/>
		<path class="st0" d="M283.1,260.5c-1.7-7.1-3.2-14.3-3.9-21.6"/>
		<path class="st0" d="M286.7,260.8c-1.6-7.2-3.3-14.3-5-21.5"/>
		<path class="st0" d="M288.9,261.1c-1.6-7.3-3.2-14.6-4.7-21.9"/>
		<path class="st0" d="M292.5,261.8c-1.8-7.7-3.7-15.3-5.8-22.8"/>
		<path class="st0" d="M295,262.4c-1.9-7.9-3.8-15.8-5.8-23.6"/>
		<path class="st0" d="M297.3,263c-1.9-8.2-3.8-16.3-5.7-24.4"/>
		<path class="st0" d="M300.4,263.9c-2.1-8.5-4.2-17.1-6.3-25.6"/>
		<path class="st0" d="M302.6,264.5c-2-8.9-4-17.7-5.9-26.5"/>
		<path class="st0" d="M306.1,265.6c-2.3-9.3-4.6-18.6-7-27.9"/>
		<path class="st0" d="M308.5,266.4c-2.4-9.7-4.7-19.4-6.9-29.1"/>
		<path class="st0" d="M311.5,267.2c-2.4-10.2-4.9-20.3-7.5-30.4"/>
		<path class="st0" d="M313.9,267.9c-2.4-10.5-4.8-21.1-7.3-31.7"/>
		<path class="st0" d="M317.2,268.6c-1.9-7.9-3.8-15.9-5.5-24c-1-3-3-6-2.6-9.1"/>
		<path class="st0" d="M319.5,269.1c-2.6-11.5-5.2-22.9-8-34.3"/>
		<path class="st0" d="M322.7,269.6c-2.9-11.9-5.7-23.8-8.7-35.7"/>
		<path class="st0" d="M325.9,270.1c-3-12.4-6.6-24.6-9.4-37"/>
		<path class="st0" d="M327.9,270.4c-2.9-12.7-5.8-25.4-8.9-38.1"/>
		<path class="st0" d="M331.1,270.8c-3.5-12.9-7-25.9-9.6-39.4"/>
		<path class="st0" d="M333.1,271c-3.1-13.5-6.2-27-9.2-40.7"/>
		<path class="st0" d="M336.4,271.5c-3.2-14-6.5-28-9.9-42"/>
		<path class="st0" d="M338.8,271.6c-1.3-4.9-2.5-9.7-3.5-14.7c-1.9-9.5-3.2-19.2-6.3-28.4"/>
		<path class="st0" d="M342.1,271.8c-3.6-14.7-7.2-29.4-10.7-44"/>
		<path class="st0" d="M345.3,271.9c-3.6-14.8-7.7-29.7-11.4-44.7"/>
		<path class="st0" d="M347.2,271.9c-3.7-15-7.4-30-10.8-45"/>
		<path class="st0" d="M350.1,271.7c-3.7-15-7.4-30-11.2-45"/>
		<path class="st0" d="M351.3,271.6c-3.4-15.1-6.8-30.3-10-45.5"/>
		<path class="st0" d="M353.9,271.2c-3.4-15.4-6.7-30.9-10-46.4"/>
		<path class="st0" d="M357.1,270.7c-3.9-15.8-7.5-31.6-10.7-47.6"/>
		<path class="st0" d="M360.3,269.9c-3.9-16.3-7.8-32.7-11.5-48.9"/>
		<path class="st0" d="M363.2,269.1c-4-16.7-8-33.4-11.9-50.1"/>
		<path class="st0" d="M365.9,268.1c-4.1-17-8.1-34-12.2-50.9"/>
		<path class="st0" d="M368.1,267.4c-4.2-17.2-8.2-34.4-11.8-51.5"/>
		<path class="st0" d="M370.9,266.4c-4.1-17.3-8.2-34.5-12.2-51.8"/>
		<path class="st0" d="M372.9,265.7c-4.1-17.4-8-34.8-11.7-52.3"/>
		<path class="st0" d="M376,264.4c-4.1-17.4-8.2-34.8-12.3-52.2"/>
		<path class="st0" d="M377.6,263.7c-3.6-16.5-5.7-31.9-9.9-48c0-1-1-3-1.5-4.5"/>
		<path class="st0" d="M368.7,210.2c3.9,17.4,8,34.8,12,52.1"/>
	</g>
	<g>
		<path class="st2" d="M23.3,276.7c2.2-23.6,4.5-47.3,7.6-70.9"/>
		<path class="st2" d="M27.7,277.4c2.3-23.2,4.7-46.4,7.5-69.7"/>
		<path class="st2" d="M32.3,278.1c2.5-23,5-45.9,7.1-68.6"/>
		<path class="st2" d="M36,278.6c2.5-22.7,5-45.3,7.6-67.9"/>
		<path class="st2" d="M40.3,279.2c2.4-22.6,4.9-45.2,7.5-67.8"/>
		<path class="st2" d="M44.3,279.7c2.2-22.6,4.6-45.1,7.7-67.6"/>
		<path class="st2" d="M49.3,280.1c2.5-22.6,4.9-45.2,7-67.5"/>
		<path class="st2" d="M53,280.4c2.4-22.4,5-44.7,7.5-67.1"/>
		<path class="st2" d="M57.1,280.6c2.7-22.3,5.6-44.4,7.6-66.7"/>
		<path class="st2" d="M61.4,280.8c2.1-21.9,4.5-43.9,7.6-65.7"/>
		<path class="st2" d="M65.7,280.9c2.3-21.2,4.7-42.5,7.5-64.1"/>
		<path class="st2" d="M70.7,281c2.4-20.9,4.7-41.7,6.7-62.2"/>
		<path class="st2" d="M75.2,281c2.2-19.9,4.4-39.9,6.3-59.9"/>
		<path class="st2" d="M79.9,281c1.7-19.1,3.5-38.2,6-57.3"/>
		<path class="st2" d="M84,281.1c2-18.2,3.9-36.5,6-54.9"/>
		<path class="st2" d="M88.7,281.1c1.7-17.5,3.5-35,5.5-52.4"/>
		<path class="st2" d="M93.2,281.1c1.8-16.6,3.5-33.3,5.3-49.9"/>
		<path class="st2" d="M97.9,281.1c1.7-15.9,3.4-31.8,4.8-47.8"/>
		<path class="st2" d="M101.9,281.1c1.6-15.3,3.3-30.5,5-45.8"/>
		<path class="st2" d="M106.5,281.2c1.5-14.7,3.1-29.4,4.6-44.1"/>
		<path class="st2" d="M110.9,281.3c1.4-14.3,2.9-28.6,4.5-42.9"/>
		<path class="st2" d="M116.1,281.5c1.5-14,2.8-27.9,3.5-41.9"/>
		<path class="st2" d="M119.7,281.6c1.4-13.6,2.8-27.1,4.1-40.7"/>
		<path class="st2" d="M123.6,281.9c1.4-13.2,2.8-26.4,4.4-39.5"/>
		<path class="st2" d="M128,282.2c1.4-12.7,2.8-25.4,4.2-38.1"/>
		<path class="st2" d="M133,282.6c1.2-12.2,2.3-24.4,3.4-36.8"/>
		<path class="st2" d="M137.6,283.1c1.3-12,2.4-23.9,3-35.8"/>
		<path class="st2" d="M140.5,283.3c1.4-11.6,2.8-23.2,4.3-34.7"/>
		<path class="st2" d="M145.6,283.8c1.1-11.4,2.3-22.8,3.5-34.3"/>
		<path class="st2" d="M149.5,284.2c1.2-11.4,2.5-22.8,3.8-34.1"/>
		<path class="st2" d="M153.6,284.7c1.3-11.6,2.6-23.1,3.9-34.7"/>
		<path class="st2" d="M158.3,285.2c1.3-11.9,2.5-23.8,3.4-35.7"/>
		<path class="st2" d="M161.5,285.6c1.4-12.3,2.9-24.5,4.5-36.8"/>
		<path class="st2" d="M165.9,286.1c1.2-12.9,2.5-25.7,4.2-38.5"/>
		<path class="st2" d="M170.6,286.7c1.3-13.5,2.6-26.9,3.8-40.2"/>
		<path class="st2" d="M174.3,287.2c1.5-13.9,2.9-27.8,4.3-41.7"/>
		<path class="st2" d="M177.8,287.7c1.6-14.4,3.2-28.9,5-43.3"/>
		<path class="st2" d="M181.8,288.3c1.6-14.8,3.3-29.5,5.2-44.3"/>
		<path class="st2" d="M186.3,289c1.7-15,3.3-29.9,5-44.9"/>
		<path class="st2" d="M191.1,289.9c1.5-15.1,2.9-30.2,4.4-45.4"/>
		<path class="st2" d="M195,290.7c1.6-15,3.2-30,4.7-44.9"/>
		<path class="st2" d="M198.9,291.6c1.5-14.7,3.1-29.3,5.1-44.1"/>
		<path class="st2" d="M203,292.5c1.5-14.4,3.1-28.9,5.1-43.1"/>
		<path class="st2" d="M208,293.6c1.3-13.9,2.6-27.9,4.3-41.9"/>
		<path class="st2" d="M213.1,294.6c1.5-13.4,2.8-26.9,3.5-40.6"/>
		<path class="st2" d="M217,295.4c1.4-12.9,2.7-25.9,3.8-38.9"/>
		<path class="st2" d="M220.7,296c1.4-12.4,2.8-24.8,4.3-37"/>
		<path class="st2" d="M225.1,296.6c1.3-11.7,2.6-23.5,4.1-35.3"/>
		<path class="st2" d="M229.8,297c1.3-11.3,2.5-22.5,3.6-33.8"/>
		<path class="st2" d="M234.4,297.2c1.1-10.8,2.2-21.5,3.3-32.3"/>
		<path class="st2" d="M237.9,297.3c1.1-10.4,2.4-20.8,4-31.1"/>
		<path class="st2" d="M242.6,297.3c1-10.1,2.1-20.2,3.5-30.3"/>
		<path class="st2" d="M247.6,297.2c1-10.1,1.9-20.1,2.7-30.2"/>
		<path class="st2" d="M254.6,266.6c-0.8,10.1-1.7,20.3-2.8,30.4"/>
		<path class="st2" d="M255.9,296.9c1-10.3,1.9-20.6,2.9-30.8"/>
		<path class="st2" d="M259.2,296.7c1.2-10.5,2.4-21,3.8-31.5"/>
		<path class="st2" d="M263.8,296.5c1.1-10.7,2.2-21.5,3.4-32.2"/>
		<path class="st2" d="M268.3,296.3c1.2-10.9,2.2-21.8,3.1-32.6"/>
		<path class="st2" d="M275.6,263.2c-0.7,11.1-1.7,22-2.8,32.9"/>
		<path class="st2" d="M275.9,296c1.1-11,2.3-22,3.9-33"/>
		<path class="st2" d="M280.1,296c1.3-11,2.6-21.9,4-32.7"/>
		<path class="st2" d="M285.3,296c1.1-10.7,2.1-21.4,3-32.2"/>
		<path class="st2" d="M289.6,296.2c1.1-10.5,2.2-20.9,3-31.4"/>
		<path class="st2" d="M296.7,265.8c-0.8,10.2-1.8,20.4-2.8,30.6"/>
		<path class="st2" d="M297.2,296.7c1-9.9,2.2-19.8,3.7-29.7"/>
		<path class="st2" d="M302,297.3c0.9-9.6,1.9-19.3,3.2-28.9"/>
		<path class="st2" d="M306.5,297.8c1.1-9.4,2.2-18.8,2.9-28.2"/>
		<path class="st2" d="M313.6,270.8c-0.9,9.3-1.8,18.5-2.7,27.6"/>
		<path class="st2" d="M314.2,298.8c1-9.1,2.1-18.2,3.6-27.2"/>
		<path class="st2" d="M318.7,299.3c1-9,2.2-18,3.4-26.9"/>
		<path class="st2" d="M322.9,299.7c1-8.9,2.1-17.8,3.3-26.7"/>
		<path class="st2" d="M327.9,300c1-8.8,1.9-17.6,2.6-26.5"/>
		<path class="st2" d="M332,300.1c0.9-8.6,1.8-17.3,2.7-26.1"/>
		<path class="st2" d="M335.9,300.2c0.9-8.6,1.9-17.2,3.1-25.8"/>
		<path class="st2" d="M340,300.4c0.9-8.6,1.8-17.1,3.1-25.9"/>
		<path class="st2" d="M344.5,300.6c1.1-8.7,2-17.4,2.8-26.1"/>
		<path class="st2" d="M348.9,300.9c0.9-9,1.8-17.9,2.7-26.9"/>
		<path class="st2" d="M353.3,301.2c1-9.4,1.8-18.7,2.5-27.9"/>
		<path class="st2" d="M356.9,301.6c1.1-9.7,2.1-19.4,3.2-29.2"/>
		<path class="st2" d="M360.8,301.9c1.1-10.3,2.3-20.7,3.4-31.1"/>
		<path class="st2" d="M365.3,302.4c1.1-11,2.2-22,3.1-33"/>
		<path class="st2" d="M372.7,267.9c-1.1,11.7-2.2,23.3-3.4,35"/>
		<path class="st2" d="M372.7,303.1c1.3-12.3,2.6-24.6,4.2-37.1"/>
		<path class="st2" d="M376.8,303.5c1.5-13.2,3-26.3,4.3-39.4"/>
	</g>
	<g>
		<path class="st1" d="M42,312.1c2.4-9.6,4.9-19.2,7.7-28.6"/>
		<path class="st1" d="M47.1,309.7c2.3-8.6,4.6-17.3,6.7-26"/>
		<path class="st1" d="M51.7,308.7c2.2-8.2,4.2-16.5,6.3-24.8"/>
		<path class="st1" d="M55.2,311.9c2.4-9.2,4.7-18.5,7-27.8"/>
		<path class="st1" d="M57.5,315.5c2.7-10.5,5.6-21,8.9-31.4"/>
		<path class="st1" d="M60.2,320.8c3.3-12.2,6.7-24.4,10.4-36.6"/>
		<path class="st1" d="M63.6,326.4c3.7-14,7.5-28.1,11.2-42.2"/>
		<path class="st1" d="M66.2,331.6c4.5-15.8,9-31.6,12.7-47.4"/>
		<path class="st1" d="M68.5,336.8c4.7-17.6,9.8-35,14.6-52.5"/>
		<path class="st1" d="M71.7,344c5-19.9,9.3-39.8,15.5-59.7"/>
		<path class="st1" d="M74.6,347.9c5.5-21.2,10.7-42.4,16.8-63.7"/>
		<path class="st1" d="M78.2,350.4c5.6-22.1,11-44.2,17.5-66"/>
		<path class="st1" d="M81.6,350.9c5.9-22.4,12.3-44.5,18.2-66.5"/>
		<path class="st1" d="M86.9,349.4c6-21.5,12-43,17.1-65"/>
		<path class="st1" d="M92.3,343.5c5.7-19.6,11.8-38.9,15.9-59"/>
		<path class="st1" d="M98.8,333c4.1-16.3,8.5-32.5,13.6-48.3"/>
		<path class="st1" d="M104,333.3c4.3-16.1,8.5-32.2,12.6-48.5"/>
		<path class="st1" d="M107,336.2c4.3-17,8.7-34.2,13.7-51.1"/>
		<path class="st1" d="M110.2,338.4c4.9-17.8,9.9-35.4,14.7-53.1"/>
		<path class="st1" d="M114.4,340c5.1-17.9,10.4-36,14.7-54.4"/>
		<path class="st1" d="M118.4,342.6c5.1-18.8,10-37.7,14.8-56.6"/>
		<path class="st1" d="M121.5,346c4.9-19.9,9.6-39.9,15.9-59.6"/>
		<path class="st1" d="M124.7,350.5c5.4-21.3,10.7-42.8,16.9-63.7"/>
		<path class="st1" d="M127.6,355.4c6.1-22.7,12.1-45.3,18.1-68.2"/>
		<path class="st1" d="M130.2,359.9c6.3-24.1,13.9-48.2,19.7-72.2"/>
		<path class="st1" d="M133.6,364.7c6.7-25.5,14.2-50.5,20.5-76.6"/>
		<path class="st1" d="M137.6,367.9c0.7-3.3,1.5-6.5,2.4-9.8c6.5-23.1,12.2-46.4,18.3-69.5"/>
		<path class="st1" d="M140.7,370.1c1.1-4.2,2.1-8.4,3.2-12.6c5.8-22.9,11.7-45.7,18.5-68.4"/>
		<path class="st1" d="M144.8,372.3c7.7-27.8,14.4-55.3,21.9-82.7"/>
		<path class="st1" d="M149,372.5c1.4-5.1,2.7-10.2,4-15.3c5.9-22.4,11.5-44.8,17.8-67"/>
		<path class="st1" d="M153.9,372.7c2.3-11.9,4.3-23.6,7.9-35.3c6-15,9-31,13.2-46.8"/>
		<path class="st1" d="M157.6,372.3c7.3-27,15.3-53.8,21.6-81"/>
		<path class="st1" d="M162.8,369.5c6.9-25.8,13.5-51.7,20.5-77.5"/>
		<path class="st1" d="M168.7,364.1c5.9-23.9,12.4-47.6,18.8-71.4"/>
		<path class="st1" d="M175.2,354.3c5.5-20.2,11.5-40.4,16.5-60.8"/>
		<path class="st1" d="M181.5,348.1c4.8-17.9,9.7-35.8,14.4-53.7"/>
		<path class="st1" d="M189.3,336.5c3.6-13.7,7.1-27.4,10.8-41.1"/>
		<path class="st1" d="M195.8,329.6c2.9-11.1,5.8-22.2,8.5-33.3"/>
		<path class="st1" d="M200.1,328.1c2.7-10.3,5.5-20.6,8.3-30.8"/>
		<path class="st1" d="M205.6,324.2c2.4-8.7,4.7-17.4,7-26.2"/>
		<path class="st1" d="M210.9,320.6c2-7.2,3.9-14.5,5.8-21.7"/>
		<path class="st1" d="M216.4,318.3c1.7-6.2,3.3-12.4,4.5-18.8"/>
		<path class="st1" d="M220.9,316.9c1.5-5.6,2.9-11.3,4.2-16.9"/>
		<path class="st1" d="M224.4,317c1.6-5.6,3.2-11.2,4.9-16.8"/>
		<path class="st1" d="M228.8,318.5c1.6-6,3.2-12.1,4.7-18.1"/>
		<path class="st1" d="M233.1,317.8c1.5-5.7,3-11.5,4.6-17.2"/>
		<path class="st1" d="M238.2,314.1c1.2-4.5,2.4-9.1,3.6-13.6"/>
		<path class="st1" d="M242.9,313c1.1-4.2,2.1-8.4,3.1-12.6"/>
		<path class="st1" d="M246.4,314.1c1.2-4.6,2.5-9.2,3.8-13.8"/>
		<path class="st1" d="M249.3,317.2c1.6-5.7,3.2-11.5,5.1-17.1"/>
		<path class="st1" d="M252.1,322.7c2.1-7.6,4.2-15.3,6.4-22.9"/>
		<path class="st1" d="M254.7,329.7c2.7-10,5.5-20,8-30"/>
		<path class="st1" d="M257.3,336.4c3.4-12.2,6.7-24.5,9.6-36.9"/>
		<path class="st1" d="M259.8,341.9c3.8-14.2,7.5-28.4,11.3-42.6"/>
		<path class="st1" d="M262.9,346.7c4.3-15.8,8.6-31.5,12.4-47.4"/>
		<path class="st1" d="M266,350.4c4.4-17,8.3-34.3,13.4-51.3"/>
		<path class="st1" d="M268.5,355.1c4.9-18.7,9.9-37.4,15.1-55.9"/>
		<path class="st1" d="M271.4,362.5c5.4-21.1,11-42.1,16.4-63.1"/>
		<path class="st1" d="M273.4,369c6.3-23.1,13.2-46,18.6-69.4"/>
		<path class="st1" d="M296.1,300c-5.9,25.2-13.6,49.8-20.2,74.8"/>
		<path class="st1" d="M300.3,300.5c-7.8,24.5-13.2,49.6-19.7,74.5"/>
		<path class="st1" d="M304.5,301c-6.9,24.8-13.3,49.8-19.5,74.7"/>
		<path class="st1" d="M308.7,301.5c-6.3,24.9-13.5,49.6-20,74.4"/>
		<path class="st1" d="M312.8,302c-6.5,24.7-13.7,49.2-20,73.9"/>
		<path class="st1" d="M317,302.5c-5.8,24.6-12.7,48.9-19.4,73.3"/>
		<path class="st1" d="M321.2,302.9c-5.9,24.4-12.9,48.5-19.4,72.7"/>
		<path class="st1" d="M325.4,303.2c-4.5,11.8-6.9,24.2-9.9,36.4c-2.9,12.2-6.7,24.2-10,36.3"/>
		<path class="st1" d="M329.6,303.3c-6.2,24.2-12.8,48.2-19.2,72.3"/>
		<path class="st1" d="M333.7,303.4c-6.4,24.1-12.9,48.2-19.3,72.3"/>
		<path class="st1" d="M337.9,303.6c-6.5,24-12.5,48.2-19,72.2"/>
		<path class="st1" d="M342.1,303.8c-5.9,24.2-13.1,48-19.4,72.1"/>
		<path class="st1" d="M346.3,304.1c-5.5,24.4-12.5,47.4-18.9,71.8"/>
		<path class="st1" d="M331.6,375.4c6.3-23.7,12.6-47.4,18.9-71.1"/>
		<path class="st1" d="M340.5,358.9c4.7-18.1,9.2-36.2,14.1-54.2"/>
		<path class="st1" d="M344.8,356.6c4.6-17.2,9.3-34.3,14-51.5"/>
		<path class="st1" d="M349,358.6c4.8-17.6,9.6-35.3,14-53"/>
		<path class="st1" d="M352.7,359.9c4.8-18,9.8-35.9,14.4-53.9"/>
		<path class="st1" d="M357.4,358.7c4.4-17.5,8.7-35.1,13.9-52.4"/>
		<path class="st1" d="M362.8,354.6c4.2-16,8.3-32,12.7-47.8"/>
		<path class="st1" d="M369.2,346.1c3.4-13,6.9-26,10.5-38.9"/>
		<path class="st1" d="M373.6,346.3c3.5-12.9,7-25.8,10.2-38.8"/>
		<path class="st1" d="M377.6,349.1c3.6-13.8,7-27.7,10.5-41.6"/>
	</g>
	<path class="st3" d="M23.5,334c5.7,14.1,10.3,28.6,15.2,42.9"/>
	<path class="st4" d="M27.2,329.2c6.1,15.8,11.3,31.9,16.7,48"/>
	<path class="st5" d="M30.9,325c6.2,17.2,11.8,34.5,17.3,52"/>
	<path class="st6" d="M34.5,321.7c4.7,8.2,6.7,18.3,9.6,27.2c3,9.3,6.3,18.6,9.6,27.8"/>
	<path class="st7" d="M38.2,319c7.7,19.1,14.2,38.7,20.5,58.3"/>
	<path class="st8" d="M41.9,316.7c2.9,10.2,7.1,19.9,10.7,29.9c3.6,10,6.5,20.3,9.8,30.4"/>
	<path class="st9" d="M45.6,315.2c7.6,20.4,14.6,41,21.8,61.5"/>
	<path class="st10" d="M49.2,313.2c7,21.3,13.9,42.5,20.9,63.8"/>
	<path class="st11" d="M52.9,314.1c7.3,21.3,14.4,42.6,21.8,63.8"/>
	<path class="st12" d="M56.6,319.7c6.7,19.1,12,38.6,18.5,57.8"/>
	<path class="st13" d="M60.3,326.9c5.8,17,11.9,34,17.5,51.1"/>
	<path class="st14" d="M63.9,332.8c4.6,15.2,10.2,30,15.2,45"/>
	<path class="st15" d="M67.6,341.1c4.3,12.3,8.6,24.5,12.9,36.8"/>
	<path class="st16" d="M71.3,349.2c2.2,9.9,6.4,19.2,9.6,28.8"/>
	<path class="st17" d="M75,354.1c2.9,7.8,5.5,15.7,8.2,23.6"/>
	<path class="st18" d="M78.6,355.8c2.7,7.3,4.9,14.8,7.5,22.2"/>
	<path class="st19" d="M82.3,355.9c2.3,7.6,5,15.1,7.4,22.7"/>
	<path class="st20" d="M86,354.6c3,7.8,5,15.9,7.7,23.8"/>
	<path class="st21" d="M89.7,351.6c2.7,9,6.1,17.8,9.1,26.8"/>
	<path class="st22" d="M93.3,345.8c3.5,10.8,6.9,21.6,10.4,32.4"/>
	<path class="st23" d="M97,338.7c4.2,13.5,9.2,26.7,13.7,40.2"/>
	<path class="st24" d="M100.7,336.2c5.3,14.1,9.6,28.5,14.8,42.7"/>
	<path class="st25" d="M104.4,339c4,13.5,9.4,26.5,13.4,40"/>
	<path class="st26" d="M108,342.7c4.2,11.7,8.2,24.7,11.9,36.5"/>
	<path class="st27" d="M111.7,344.1c3.7,11.6,7.5,23.2,11.3,34.8"/>
	<path class="st28" d="M115.4,345.6c3.9,11.1,7.6,22.3,11,33.5"/>
	<path class="st29" d="M119.1,348.5c3.3,10.2,6.3,20.6,9.7,30.8"/>
	<path class="st30" d="M122.7,353.2c3.3,8.7,5.3,17.9,9.5,26.2"/>
	<path class="st31" d="M126.4,359.2c3.3,6.3,4.8,13.2,6.8,20"/>
	<path class="st32" d="M132.7,366.6c1.2,4.5,2.8,9,4.5,13.4"/>
	<path class="st33" d="M136.4,371.5c0.7,2.9,1.6,5.8,2.5,8.6"/>
	<path class="st34" d="M140.1,374.1c0.3,2,1.1,4,1.9,5.9"/>
	<path class="st35" d="M165.8,374.7c0.6,1.6,1.1,3.1,1.5,4.7"/>
	<path class="st36" d="M169.5,372.1c0.5,2.5,1.3,4.9,2.3,7.2"/>
	<path class="st37" d="M173.2,366.2c1.3,4.4,2.7,8.8,4.2,13.1"/>
	<path class="st38" d="M174.2,359.6c1.7,6.2,4.1,12.2,6.4,18.2"/>
	<path class="st39" d="M177.9,355.9c2.7,7.2,5.2,14.4,7.6,21.7"/>
	<path class="st40" d="M181.6,352.5c3.6,8.2,6.3,16.8,9,25.4"/>
	<path class="st41" d="M185.2,347.3c3.3,10,6.2,20.1,9.5,30.2"/>
	<path class="st42" d="M188.9,341.1c4.4,12.1,8.3,24.4,12.6,36.5"/>
	<path class="st43" d="M192.6,336.2c5.6,13.2,9.6,27,14,40.7"/>
	<path class="st44" d="M196.3,333.9c4.4,14.5,9.4,28.8,14.2,43.2"/>
	<path class="st45" d="M199.9,332.9c5.4,14.5,9.9,29.2,15,43.8"/>
	<path class="st46" d="M203.6,330.3c5.9,15.5,10.7,31.3,16.2,47"/>
	<path class="st47" d="M207.3,327.4c5.2,16.7,11.2,33.1,16.5,49.8"/>
	<path class="st48" d="M211,325.2c5.4,17.3,10.9,34.7,16.6,51.9"/>
	<path class="st49" d="M214.6,323.6c6.6,17.5,11.6,35.5,17.1,53.3"/>
	<path class="st50" d="M218.3,322.3c7,18,12.7,36.5,19,54.7"/>
	<path class="st51" d="M222,321.4c6.4,18.6,12.6,37.3,19.3,55.9"/>
	<path class="st52" d="M225.7,322.6c5.8,18.2,12,36.3,18.2,54.4"/>
	<path class="st53" d="M229.3,323.9c6,17.6,11.9,35.3,17.9,52.9"/>
	<path class="st54" d="M233,322.5c6.3,18,11.3,36.4,17.4,54.5"/>
	<path class="st55" d="M236.7,319.4c5.8,19.4,12.5,38.6,18.7,57.9"/>
	<path class="st56" d="M240.4,318.1c6.8,19.5,13.8,39,20.4,58.6"/>
	<path class="st57" d="M244,317.9c6.4,19.9,13.3,39.6,20,59.4"/>
	<path class="st58" d="M247.7,320.2c5.7,19.3,13,38,19.6,57"/>
	<path class="st59" d="M251.4,327.2c6.4,16.2,10.9,33,16.3,49.5"/>
	<path class="st60" d="M255.1,337.3c4.9,13.1,9.3,26.3,13.7,39.6"/>
	<path class="st61" d="M258.7,346.1c3.4,10.2,6.7,20.5,10.1,30.7"/>
	<path class="st62" d="M262.4,351.8c2.9,8.3,5.5,16.8,8.3,25.2"/>
	<path class="st63" d="M266.1,356.2c2.2,6.9,4.6,13.8,7,20.6"/>
	<path class="st64" d="M269.8,364.1c1,4.4,2.4,8.7,4,13"/>
</g>
<g id="Calque_2">
</g>
</svg>
