0
SECTION
2
ENTITIES
0
LINE
8
0
10
-209.19788
20
121.307556
30
-433.0127
11
-208.19788
21
122.30589
31
-433.0127
0
LINE
8
0
10
-208.19788
20
122.30589
30
-433.0127
11
-207.19788
21
123.29425
31
-433.0127
0
LINE
8
0
10
-207.19788
20
123.29425
30
-433.0127
11
-206.19788
21
124.26276
31
-433.0127
0
LINE
8
0
10
-206.19788
20
124.26276
30
-433.0127
11
-205.19788
21
125.20174
31
-433.0127
0
LINE
8
0
10
-205.19788
20
125.20174
30
-433.0127
11
-204.19788
21
126.101814
31
-433.0127
0
LINE
8
0
10
-204.19788
20
126.101814
30
-433.0127
11
-203.19788
21
126.95398
31
-433.0127
0
LINE
8
0
10
-203.19788
20
126.95398
30
-433.0127
11
-202.19788
21
127.74973
31
-433.0127
0
LINE
8
0
10
-202.19788
20
127.74973
30
-433.0127
11
-201.19788
21
128.48112
31
-433.0127
0
LINE
8
0
10
-201.19788
20
128.48112
30
-433.0127
11
-200.19788
21
129.14082
31
-433.0127
0
LINE
8
0
10
-200.19788
20
129.14082
30
-433.0127
11
-199.19788
21
129.72226
31
-433.0127
0
LINE
8
0
10
-199.19788
20
129.72226
30
-433.0127
11
-198.19788
21
130.21964
31
-433.0127
0
LINE
8
0
10
-198.19788
20
130.21964
30
-433.0127
11
-197.19788
21
130.62794
31
-433.0127
0
LINE
8
0
10
-197.19788
20
130.62794
30
-433.0127
11
-196.19788
21
130.94315
31
-433.0127
0
LINE
8
0
10
-196.19788
20
130.94315
30
-433.0127
11
-195.19788
21
131.16205
31
-433.0127
0
LINE
8
0
10
-195.19788
20
131.16205
30
-433.0127
11
-194.19788
21
131.2825
31
-433.0127
0
LINE
8
0
10
-194.19788
20
131.2825
30
-433.0127
11
-193.19788
21
131.3033
31
-433.0127
0
LINE
8
0
10
-193.19788
20
131.3033
30
-433.0127
11
-192.19788
21
131.2242
31
-433.0127
0
LINE
8
0
10
-192.19788
20
131.2242
30
-433.0127
11
-191.19788
21
131.04604
31
-433.0127
0
LINE
8
0
10
-191.19788
20
131.04604
30
-433.0127
11
-190.19788
21
130.77055
31
-433.0127
0
LINE
8
0
10
-190.19788
20
130.77055
30
-433.0127
11
-189.19788
21
130.40053
31
-433.0127
0
LINE
8
0
10
-189.19788
20
130.40053
30
-433.0127
11
-188.19788
21
129.93965
31
-433.0127
0
LINE
8
0
10
-188.19788
20
129.93965
30
-433.0127
11
-187.19788
21
129.39252
31
-433.0127
0
LINE
8
0
10
-187.19788
20
129.39252
30
-433.0127
11
-186.19788
21
128.7646
31
-433.0127
0
LINE
8
0
10
-186.19788
20
128.7646
30
-433.0127
11
-185.19788
21
128.0622
31
-433.0127
0
LINE
8
0
10
-185.19788
20
128.0622
30
-433.0127
11
-184.19788
21
127.29228
31
-433.0127
0
LINE
8
0
10
-184.19788
20
127.29228
30
-433.0127
11
-183.19788
21
126.46257
31
-433.0127
0
LINE
8
0
10
-183.19788
20
126.46257
30
-433.0127
11
-182.19788
21
125.58136
31
-433.0127
0
LINE
8
0
10
-182.19788
20
125.58136
30
-433.0127
11
-181.19788
21
124.65744
31
-433.0127
0
LINE
8
0
10
-181.19788
20
124.65744
30
-433.0127
11
-180.19788
21
123.70006
31
-433.0127
0
LINE
8
0
10
-180.19788
20
123.70006
30
-433.0127
11
-179.19788
21
122.718765
31
-433.0127
0
LINE
8
0
10
-179.19788
20
122.718765
30
-433.0127
11
-178.19788
21
121.72337
31
-433.0127
0
LINE
8
0
10
-178.19788
20
121.72337
30
-433.0127
11
-177.19788
21
120.72382
31
-433.0127
0
LINE
8
0
10
-177.19788
20
120.72382
30
-433.0127
11
-176.19788
21
119.73011
31
-433.0127
0
LINE
8
0
10
-176.19788
20
119.73011
30
-433.0127
11
-175.19788
21
118.75216
31
-433.0127
0
LINE
8
0
10
-175.19788
20
118.75216
30
-433.0127
11
-174.19788
21
117.799736
31
-433.0127
0
LINE
8
0
10
-174.19788
20
117.799736
30
-433.0127
11
-173.19788
21
116.88236
31
-433.0127
0
LINE
8
0
10
-173.19788
20
116.88236
30
-433.0127
11
-172.19788
21
116.00921
31
-433.0127
0
LINE
8
0
10
-172.19788
20
116.00921
30
-433.0127
11
-171.19788
21
115.18899
31
-433.0127
0
LINE
8
0
10
-171.19788
20
115.18899
30
-433.0127
11
-170.19788
21
114.42991
31
-433.0127
0
LINE
8
0
10
-170.19788
20
114.42991
30
-433.0127
11
-169.19788
21
113.73954
31
-433.0127
0
LINE
8
0
10
-169.19788
20
113.73954
30
-433.0127
11
-168.19788
21
113.124794
31
-433.0127
0
LINE
8
0
10
-168.19788
20
113.124794
30
-433.0127
11
-167.19788
21
112.591805
31
-433.0127
0
LINE
8
0
10
-167.19788
20
112.591805
30
-433.0127
11
-166.19788
21
112.145905
31
-433.0127
0
LINE
8
0
10
-166.19788
20
112.145905
30
-433.0127
11
-165.19788
21
111.79154
31
-433.0127
0
LINE
8
0
10
-165.19788
20
111.79154
30
-433.0127
11
-164.19788
21
111.53226
31
-433.0127
0
LINE
8
0
10
-164.19788
20
111.53226
30
-433.0127
11
-163.19788
21
111.37065
31
-433.0127
0
LINE
8
0
10
-163.19788
20
111.37065
30
-433.0127
11
-162.19788
21
111.30833
31
-433.0127
0
LINE
8
0
10
-162.19788
20
111.30833
30
-433.0127
11
-161.19788
21
111.34591
31
-433.0127
0
LINE
8
0
10
-161.19788
20
111.34591
30
-433.0127
11
-160.19788
21
111.483025
31
-433.0127
0
LINE
8
0
10
-160.19788
20
111.483025
30
-433.0127
11
-159.19788
21
111.71831
31
-433.0127
0
LINE
8
0
10
-159.19788
20
111.71831
30
-433.0127
11
-158.19788
21
112.0494
31
-433.0127
0
LINE
8
0
10
-158.19788
20
112.0494
30
-433.0127
11
-157.19788
21
112.473
31
-433.0127
0
LINE
8
0
10
-157.19788
20
112.473
30
-433.0127
11
-156.19788
21
112.98486
31
-433.0127
0
LINE
8
0
10
-156.19788
20
112.98486
30
-433.0127
11
-155.19788
21
113.579895
31
-433.0127
0
LINE
8
0
10
-155.19788
20
113.579895
30
-433.0127
11
-154.19788
21
114.25214
31
-433.0127
0
LINE
8
0
10
-154.19788
20
114.25214
30
-433.0127
11
-153.19788
21
114.994865
31
-433.0127
0
LINE
8
0
10
-153.19788
20
114.994865
30
-433.0127
11
-152.19788
21
115.800674
31
-433.0127
0
LINE
8
0
10
-152.19788
20
115.800674
30
-433.0127
11
-151.19788
21
116.66151
31
-433.0127
0
LINE
8
0
10
-151.19788
20
116.66151
30
-433.0127
11
-150.19788
21
117.568756
31
-433.0127
0
LINE
8
0
10
-150.19788
20
117.568756
30
-433.0127
11
-149.19788
21
118.51337
31
-433.0127
0
LINE
8
0
10
-149.19788
20
118.51337
30
-433.0127
11
-148.19788
21
119.4859
31
-433.0127
0
LINE
8
0
10
-148.19788
20
119.4859
30
-433.0127
11
-147.19788
21
120.47662
31
-433.0127
0
LINE
8
0
10
-147.19788
20
120.47662
30
-433.0127
11
-146.19788
21
121.47566
31
-433.0127
0
LINE
8
0
10
-146.19788
20
121.47566
30
-433.0127
11
-145.19788
21
122.473015
31
-433.0127
0
LINE
8
0
10
-145.19788
20
122.473015
30
-433.0127
11
-144.19788
21
123.45872
31
-433.0127
0
LINE
8
0
10
-144.19788
20
123.45872
30
-433.0127
11
-143.19788
21
124.422935
31
-433.0127
0
LINE
8
0
10
-143.19788
20
124.422935
30
-433.0127
11
-142.19788
21
125.35602
31
-433.0127
0
LINE
8
0
10
-142.19788
20
125.35602
30
-433.0127
11
-141.19788
21
126.24866
31
-433.0127
0
LINE
8
0
10
-141.19788
20
126.24866
30
-433.0127
11
-140.19788
21
127.09192
31
-433.0127
0
LINE
8
0
10
-140.19788
20
127.09192
30
-433.0127
11
-139.19788
21
127.87739
31
-433.0127
0
LINE
8
0
10
-139.19788
20
127.87739
30
-433.0127
11
-138.19788
21
128.59721
31
-433.0127
0
LINE
8
0
10
-138.19788
20
128.59721
30
-433.0127
11
-137.19788
21
129.2442
31
-433.0127
0
LINE
8
0
10
-137.19788
20
129.2442
30
-433.0127
11
-136.19788
21
129.8119
31
-433.0127
0
LINE
8
0
10
-136.19788
20
129.8119
30
-433.0127
11
-135.19788
21
130.29462
31
-433.0127
0
LINE
8
0
10
-135.19788
20
130.29462
30
-433.0127
11
-134.19788
21
130.68755
31
-433.0127
0
LINE
8
0
10
-134.19788
20
130.68755
30
-433.0127
11
-133.19788
21
130.98674
31
-433.0127
0
LINE
8
0
10
-133.19788
20
130.98674
30
-433.0127
11
-132.19788
21
131.18922
31
-433.0127
0
LINE
8
0
10
-132.19788
20
131.18922
30
-433.0127
11
-131.19788
21
131.29298
31
-433.0127
0
LINE
8
0
10
-131.19788
20
131.29298
30
-433.0127
11
-130.19788
21
131.29697
31
-433.0127
0
LINE
8
0
10
-130.19788
20
131.29697
30
-433.0127
11
-129.19788
21
131.20114
31
-433.0127
0
LINE
8
0
10
-129.19788
20
131.20114
30
-433.0127
11
-128.19788
21
131.00647
31
-433.0127
0
LINE
8
0
10
-128.19788
20
131.00647
30
-433.0127
11
-127.197876
21
130.71487
31
-433.0127
0
LINE
8
0
10
-127.197876
20
130.71487
30
-433.0127
11
-126.197876
21
130.3293
31
-433.0127
0
LINE
8
0
10
-126.197876
20
130.3293
30
-433.0127
11
-125.197876
21
129.85356
31
-433.0127
0
LINE
8
0
10
-125.197876
20
129.85356
30
-433.0127
11
-124.197876
21
129.29245
31
-433.0127
0
LINE
8
0
10
-124.197876
20
129.29245
30
-433.0127
11
-123.197876
21
128.65155
31
-433.0127
0
LINE
8
0
10
-123.197876
20
128.65155
30
-433.0127
11
-122.197876
21
127.93727
31
-433.0127
0
LINE
8
0
10
-122.197876
20
127.93727
30
-433.0127
11
-121.197876
21
127.15675
31
-433.0127
0
LINE
8
0
10
-121.197876
20
127.15675
30
-433.0127
11
-120.197876
21
126.31779
31
-433.0127
0
LINE
8
0
10
-120.197876
20
126.31779
30
-433.0127
11
-119.197876
21
125.42876
31
-433.0127
0
LINE
8
0
10
-119.197876
20
125.42876
30
-433.0127
11
-118.197876
21
124.49855
31
-433.0127
0
LINE
8
0
10
-118.197876
20
124.49855
30
-433.0127
11
-117.197876
21
123.53647
31
-433.0127
0
LINE
8
0
10
-117.197876
20
123.53647
30
-433.0127
11
-116.197876
21
122.55211
31
-433.0127
0
LINE
8
0
10
-116.197876
20
122.55211
30
-433.0127
11
-115.197876
21
121.55531
31
-433.0127
0
LINE
8
0
10
-115.197876
20
121.55531
30
-433.0127
11
-114.197876
21
120.556046
31
-433.0127
0
LINE
8
0
10
-114.197876
20
120.556046
30
-433.0127
11
-113.197876
21
119.564285
31
-433.0127
0
LINE
8
0
10
-113.197876
20
119.564285
30
-433.0127
11
-112.197876
21
118.58994
31
-433.0127
0
LINE
8
0
10
-112.197876
20
118.58994
30
-433.0127
11
-111.197876
21
117.64275
31
-433.0127
0
LINE
8
0
10
-111.197876
20
117.64275
30
-433.0127
11
-110.197876
21
116.732185
31
-433.0127
0
LINE
8
0
10
-110.197876
20
116.732185
30
-433.0127
11
-109.197876
21
115.867325
31
-433.0127
0
LINE
8
0
10
-109.197876
20
115.867325
30
-433.0127
11
-108.197876
21
115.05683
31
-433.0127
0
LINE
8
0
10
-108.197876
20
115.05683
30
-433.0127
11
-107.197876
21
114.30879
31
-433.0127
0
LINE
8
0
10
-107.197876
20
114.30879
30
-433.0127
11
-106.197876
21
113.63068
31
-433.0127
0
LINE
8
0
10
-106.197876
20
113.63068
30
-433.0127
11
-105.197876
21
113.029274
31
-433.0127
0
LINE
8
0
10
-105.197876
20
113.029274
30
-433.0127
11
-104.197876
21
112.51058
31
-433.0127
0
LINE
8
0
10
-104.197876
20
112.51058
30
-433.0127
11
-103.197876
21
112.07979
31
-433.0127
0
LINE
8
0
10
-103.197876
20
112.07979
30
-433.0127
11
-102.197876
21
111.741196
31
-433.0127
0
LINE
8
0
10
-102.197876
20
111.741196
30
-433.0127
11
-101.197876
21
111.498184
31
-433.0127
0
LINE
8
0
10
-101.197876
20
111.498184
30
-433.0127
11
-100.197876
21
111.35319
31
-433.0127
0
LINE
8
0
10
-100.197876
20
111.35319
30
-433.0127
11
-99.197876
21
111.307655
31
-433.0127
0
LINE
8
0
10
-99.197876
20
111.307655
30
-433.0127
11
-98.197876
21
111.36204
31
-433.0127
0
LINE
8
0
10
-98.197876
20
111.36204
30
-433.0127
11
-97.197876
21
111.51579
31
-433.0127
0
LINE
8
0
10
-97.197876
20
111.51579
30
-433.0127
11
-96.197876
21
111.76739
31
-433.0127
0
LINE
8
0
10
-96.197876
20
111.76739
30
-433.0127
11
-95.197876
21
112.1143
31
-433.0127
0
LINE
8
0
10
-95.197876
20
112.1143
30
-433.0127
11
-94.197876
21
112.55307
31
-433.0127
0
LINE
8
0
10
-94.197876
20
112.55307
30
-433.0127
11
-93.197876
21
113.079315
31
-433.0127
0
LINE
8
0
10
-93.197876
20
113.079315
30
-433.0127
11
-92.197876
21
113.687775
31
-433.0127
0
LINE
8
0
10
-92.197876
20
113.687775
30
-433.0127
11
-91.197876
21
114.37237
31
-433.0127
0
LINE
8
0
10
-91.197876
20
114.37237
30
-433.0127
11
-90.197876
21
115.12626
31
-433.0127
0
LINE
8
0
10
-90.197876
20
115.12626
30
-433.0127
11
-89.197876
21
115.94191
31
-433.0127
0
LINE
8
0
10
-89.197876
20
115.94191
30
-433.0127
11
-88.197876
21
116.81117
31
-433.0127
0
LINE
8
0
10
-88.197876
20
116.81117
30
-433.0127
11
-87.197876
21
117.72536
31
-433.0127
0
LINE
8
0
10
-87.197876
20
117.72536
30
-433.0127
11
-86.197876
21
118.67534
31
-433.0127
0
LINE
8
0
10
-86.197876
20
118.67534
30
-433.0127
11
-85.197876
21
119.65163
31
-433.0127
0
LINE
8
0
10
-85.197876
20
119.65163
30
-433.0127
11
-84.197876
21
120.644455
31
-433.0127
0
LINE
8
0
10
-84.197876
20
120.644455
30
-433.0127
11
-83.197876
21
121.643906
31
-433.0127
0
LINE
8
0
10
-83.197876
20
121.643906
30
-433.0127
11
-82.197876
21
122.64
31
-433.0127
0
LINE
8
0
10
-82.197876
20
122.64
30
-433.0127
11
-81.197876
21
123.62278
31
-433.0127
0
LINE
8
0
10
-81.197876
20
123.62278
30
-433.0127
11
-80.197876
21
124.58242
31
-433.0127
0
LINE
8
0
10
-80.197876
20
124.58242
30
-433.0127
11
-79.197876
21
125.509346
31
-433.0127
0
LINE
8
0
10
-79.197876
20
125.509346
30
-433.0127
11
-78.197876
21
126.39429
31
-433.0127
0
LINE
8
0
10
-78.197876
20
126.39429
30
-433.0127
11
-77.197876
21
127.22841
31
-433.0127
0
LINE
8
0
10
-77.197876
20
127.22841
30
-433.0127
11
-76.197876
21
128.00336
31
-433.0127
0
LINE
8
0
10
-76.197876
20
128.00336
30
-433.0127
11
-75.197876
21
128.71141
31
-433.0127
0
LINE
8
0
10
-75.197876
20
128.71141
30
-433.0127
11
-74.197876
21
129.34549
31
-433.0127
0
LINE
8
0
10
-74.197876
20
129.34549
30
-433.0127
11
-73.197876
21
129.89926
31
-433.0127
0
LINE
8
0
10
-73.197876
20
129.89926
30
-433.0127
11
-72.197876
21
130.36717
31
-433.0127
0
LINE
8
0
10
-72.197876
20
130.36717
30
-433.0127
11
-71.197876
21
130.74457
31
-433.0127
0
LINE
8
0
10
-71.197876
20
130.74457
30
-433.0127
11
-70.197876
21
131.02766
31
-433.0127
0
LINE
8
0
10
-70.197876
20
131.02766
30
-433.0127
11
-69.197876
21
131.21365
31
-433.0127
0
LINE
8
0
10
-69.197876
20
131.21365
30
-433.0127
11
-68.197876
21
131.30066
31
-433.0127
0
LINE
8
0
10
-68.197876
20
131.30066
30
-433.0127
11
-67.197876
21
131.28781
31
-433.0127
0
LINE
8
0
10
-67.197876
20
131.28781
30
-433.0127
11
-66.197876
21
131.17525
31
-433.0127
0
LINE
8
0
10
-66.197876
20
131.17525
30
-433.0127
11
-65.197876
21
130.96408
31
-433.0127
0
LINE
8
0
10
-65.197876
20
130.96408
30
-433.0127
11
-64.197876
21
130.65643
31
-433.0127
0
LINE
8
0
10
-64.197876
20
130.65643
30
-433.0127
11
-63.197876
21
130.25539
31
-433.0127
0
LINE
8
0
10
-63.197876
20
130.25539
30
-433.0127
11
-62.197876
21
129.76492
31
-433.0127
0
LINE
8
0
10
-62.197876
20
129.76492
30
-433.0127
11
-61.197876
21
129.18996
31
-433.0127
0
LINE
8
0
10
-61.197876
20
129.18996
30
-433.0127
11
-60.197876
21
128.53622
31
-433.0127
0
LINE
8
0
10
-60.197876
20
128.53622
30
-433.0127
11
-59.197876
21
127.81027
31
-433.0127
0
LINE
8
0
10
-59.197876
20
127.81027
30
-433.0127
11
-58.197876
21
127.01935
31
-433.0127
0
LINE
8
0
10
-58.197876
20
127.01935
30
-433.0127
11
-57.197876
21
126.17136
31
-433.0127
0
LINE
8
0
10
-57.197876
20
126.17136
30
-433.0127
11
-56.197876
21
125.27476
31
-433.0127
0
LINE
8
0
10
-56.197876
20
125.27476
30
-433.0127
11
-55.197876
21
124.338524
31
-433.0127
0
LINE
8
0
10
-55.197876
20
124.338524
30
-433.0127
11
-54.197876
21
123.37201
31
-433.0127
0
LINE
8
0
10
-54.197876
20
123.37201
30
-433.0127
11
-53.197876
21
122.384865
31
-433.0127
0
LINE
8
0
10
-53.197876
20
122.384865
30
-433.0127
11
-52.197876
21
121.386955
31
-433.0127
0
LINE
8
0
10
-52.197876
20
121.386955
30
-433.0127
11
-51.197876
21
120.388245
31
-433.0127
0
LINE
8
0
10
-51.197876
20
120.388245
30
-433.0127
11
-50.197876
21
119.39873
31
-433.0127
0
LINE
8
0
10
-50.197876
20
119.39873
30
-433.0127
11
-49.197876
21
118.42828
31
-433.0127
0
LINE
8
0
10
-49.197876
20
118.42828
30
-433.0127
11
-48.197876
21
117.48661
31
-433.0127
0
LINE
8
0
10
-48.197876
20
117.48661
30
-433.0127
11
-47.197876
21
116.583115
31
-433.0127
0
LINE
8
0
10
-47.197876
20
116.583115
30
-433.0127
11
-46.197876
21
115.72682
31
-433.0127
0
LINE
8
0
10
-46.197876
20
115.72682
30
-433.0127
11
-45.197876
21
114.926285
31
-433.0127
0
LINE
8
0
10
-45.197876
20
114.926285
30
-433.0127
11
-44.197876
21
114.189514
31
-433.0127
0
LINE
8
0
10
-44.197876
20
114.189514
30
-433.0127
11
-43.197876
21
113.523865
31
-433.0127
0
LINE
8
0
10
-43.197876
20
113.523865
30
-433.0127
11
-42.197876
21
112.93599
31
-433.0127
0
LINE
8
0
10
-42.197876
20
112.93599
30
-433.0127
11
-41.197876
21
112.431755
31
-433.0127
0
LINE
8
0
10
-41.197876
20
112.431755
30
-433.0127
11
-40.197876
21
112.01621
31
-433.0127
0
LINE
8
0
10
-40.197876
20
112.01621
30
-433.0127
11
-39.197876
21
111.693504
31
-433.0127
0
LINE
8
0
10
-39.197876
20
111.693504
30
-433.0127
11
-38.197876
21
111.46686
31
-433.0127
0
LINE
8
0
10
-38.197876
20
111.46686
30
-433.0127
11
-37.197876
21
111.33853
31
-433.0127
0
LINE
8
0
10
-37.197876
20
111.33853
30
-433.0127
11
-36.197876
21
111.309814
31
-433.0127
0
LINE
8
0
10
-36.197876
20
111.309814
30
-433.0127
11
-35.197876
21
111.381
31
-433.0127
0
LINE
8
0
10
-35.197876
20
111.381
30
-433.0127
11
-34.197876
21
111.55136
31
-433.0127
0
LINE
8
0
10
-34.197876
20
111.55136
30
-433.0127
11
-33.197876
21
111.81921
31
-433.0127
0
LINE
8
0
10
-33.197876
20
111.81921
30
-433.0127
11
-32.197876
21
112.18186
31
-433.0127
0
LINE
8
0
10
-32.197876
20
112.18186
30
-433.0127
11
-31.197876
21
112.63569
31
-433.0127
0
LINE
8
0
10
-31.197876
20
112.63569
30
-433.0127
11
-30.197876
21
113.17617
31
-433.0127
0
LINE
8
0
10
-30.197876
20
113.17617
30
-433.0127
11
-29.197876
21
113.7979
31
-433.0127
0
LINE
8
0
10
-29.197876
20
113.7979
30
-433.0127
11
-28.197876
21
114.49466
31
-433.0127
0
LINE
8
0
10
-28.197876
20
114.49466
30
-433.0127
11
-27.197876
21
115.25949
31
-433.0127
0
LINE
8
0
10
-27.197876
20
115.25949
30
-433.0127
11
-26.197876
21
116.084755
31
-433.0127
0
LINE
8
0
10
-26.197876
20
116.084755
30
-433.0127
11
-25.197876
21
116.962204
31
-433.0127
0
LINE
8
0
10
-25.197876
20
116.962204
30
-433.0127
11
-24.197876
21
117.88307
31
-433.0127
0
LINE
8
0
10
-24.197876
20
117.88307
30
-433.0127
11
-23.197876
21
118.83816
31
-433.0127
0
LINE
8
0
10
-23.197876
20
118.83816
30
-433.0127
11
-22.197876
21
119.81792
31
-433.0127
0
LINE
8
0
10
-22.197876
20
119.81792
30
-433.0127
11
-21.197876
21
120.81255
31
-433.0127
0
LINE
8
0
10
-21.197876
20
120.81255
30
-433.0127
11
-20.197876
21
121.81214
31
-433.0127
0
LINE
8
0
10
-20.197876
20
121.81214
30
-433.0127
11
-19.197876
21
122.80669
31
-433.0127
0
LINE
8
0
10
-19.197876
20
122.80669
30
-433.0127
11
-18.197876
21
123.786255
31
-433.0127
0
LINE
8
0
10
-18.197876
20
123.786255
30
-433.0127
11
-17.197876
21
124.74105
31
-433.0127
0
LINE
8
0
10
-17.197876
20
124.74105
30
-433.0127
11
-16.197876
21
125.661545
31
-433.0127
0
LINE
8
0
10
-16.197876
20
125.661545
30
-433.0127
11
-15.197876
21
126.538536
31
-433.0127
0
LINE
8
0
10
-15.197876
20
126.538536
30
-433.0127
11
-14.197876
21
127.36326
31
-433.0127
0
LINE
8
0
10
-14.197876
20
127.36326
30
-433.0127
11
-13.197876
21
128.12747
31
-433.0127
0
LINE
8
0
10
-13.197876
20
128.12747
30
-433.0127
11
-12.197876
21
128.82355
31
-433.0127
0
LINE
8
0
10
-12.197876
20
128.82355
30
-433.0127
11
-11.197876
21
129.44452
31
-433.0127
0
LINE
8
0
10
-11.197876
20
129.44452
30
-433.0127
11
-10.197876
21
129.98419
31
-433.0127
0
LINE
8
0
10
-10.197876
20
129.98419
30
-433.0127
11
-9.197876
21
130.43716
31
-433.0127
0
LINE
8
0
10
-9.197876
20
130.43716
30
-433.0127
11
-8.197876
21
130.79893
31
-433.0127
0
LINE
8
0
10
-8.197876
20
130.79893
30
-433.0127
11
-7.197876
21
131.06586
31
-433.0127
0
LINE
8
0
10
-7.197876
20
131.06586
30
-433.0127
11
-6.197876
21
131.23528
31
-433.0127
0
LINE
8
0
10
-6.197876
20
131.23528
30
-433.0127
11
-5.197876
21
131.3055
31
-433.0127
0
LINE
8
0
10
-5.197876
20
131.3055
30
-433.0127
11
-4.197876
21
131.27582
31
-433.0127
0
LINE
8
0
10
-4.197876
20
131.27582
30
-433.0127
11
-3.197876
21
131.14655
31
-433.0127
0
LINE
8
0
10
-3.197876
20
131.14655
30
-433.0127
11
-2.197876
21
130.91896
31
-433.0127
0
LINE
8
0
10
-2.197876
20
130.91896
30
-433.0127
11
-1.197876
21
130.59535
31
-433.0127
0
LINE
8
0
10
-1.197876
20
130.59535
30
-433.0127
11
-0.19787598
21
130.17892
31
-433.0127
0
LINE
8
0
10
-0.19787598
20
130.17892
30
-433.0127
11
0.802124
21
129.67387
31
-433.0127
0
LINE
8
0
10
0.802124
20
129.67387
30
-433.0127
11
1.802124
21
129.08522
31
-433.0127
0
LINE
8
0
10
1.802124
20
129.08522
30
-433.0127
11
2.802124
21
128.41885
31
-433.0127
0
LINE
8
0
10
2.802124
20
128.41885
30
-433.0127
11
3.802124
21
127.681435
31
-433.0127
0
LINE
8
0
10
3.802124
20
127.681435
30
-433.0127
11
4.802124
21
126.88033
31
-433.0127
0
LINE
8
0
10
4.802124
20
126.88033
30
-433.0127
11
5.802124
21
126.023544
31
-433.0127
0
LINE
8
0
10
5.802124
20
126.023544
30
-433.0127
11
6.802124
21
125.11964
31
-433.0127
0
LINE
8
0
10
6.802124
20
125.11964
30
-433.0127
11
7.802124
21
124.177635
31
-433.0127
0
LINE
8
0
10
7.802124
20
124.177635
30
-433.0127
11
8.802124
21
123.20696
31
-433.0127
0
LINE
8
0
10
8.802124
20
123.20696
30
-433.0127
11
9.802124
21
122.21731
31
-433.0127
0
LINE
8
0
10
9.802124
20
122.21731
30
-433.0127
11
10.802124
21
121.21857
31
-433.0127
0
LINE
8
0
10
10.802124
20
121.21857
30
-433.0127
11
11.802124
21
120.22071
31
-433.0127
0
LINE
8
0
10
11.802124
20
120.22071
30
-433.0127
11
12.802124
21
119.23372
31
-433.0127
0
LINE
8
0
10
12.802124
20
119.23372
30
-433.0127
11
13.802124
21
118.26745
31
-433.0127
0
LINE
8
0
10
13.802124
20
118.26745
30
-433.0127
11
14.802124
21
117.33155
31
-433.0127
0
LINE
8
0
10
14.802124
20
117.33155
30
-433.0127
11
15.802124
21
116.43538
31
-433.0127
0
LINE
8
0
10
15.802124
20
116.43538
30
-433.0127
11
16.802124
21
115.58789
31
-433.0127
0
LINE
8
0
10
16.802124
20
115.58789
30
-433.0127
11
17.802124
21
114.797554
31
-433.0127
0
LINE
8
0
10
17.802124
20
114.797554
30
-433.0127
11
18.802124
21
114.07226
31
-433.0127
0
LINE
8
0
10
18.802124
20
114.07226
30
-433.0127
11
19.802124
21
113.41926
31
-433.0127
0
LINE
8
0
10
19.802124
20
113.41926
30
-433.0127
11
20.802124
21
112.84508
31
-433.0127
0
LINE
8
0
10
20.802124
20
112.84508
30
-433.0127
11
21.802124
21
112.35545
31
-433.0127
0
LINE
8
0
10
21.802124
20
112.35545
30
-433.0127
11
22.802124
21
111.95527
31
-433.0127
0
LINE
8
0
10
22.802124
20
111.95527
30
-433.0127
11
23.802124
21
111.64854
31
-433.0127
0
LINE
8
0
10
23.802124
20
111.64854
30
-433.0127
11
24.802124
21
111.43832
31
-433.0127
0
LINE
8
0
10
24.802124
20
111.43832
30
-433.0127
11
25.802124
21
111.326706
31
-433.0127
0
LINE
8
0
10
25.802124
20
111.326706
30
-433.0127
11
26.802124
21
111.31482
31
-433.0127
0
LINE
8
0
10
26.802124
20
111.31482
30
-433.0127
11
27.802124
21
111.40278
31
-433.0127
0
LINE
8
0
10
27.802124
20
111.40278
30
-433.0127
11
28.802124
21
111.5897
31
-433.0127
0
LINE
8
0
10
28.802124
20
111.5897
30
-433.0127
11
29.802124
21
111.873726
31
-433.0127
0
LINE
8
0
10
29.802124
20
111.873726
30
-433.0127
11
30.802124
21
112.25201
31
-433.0127
0
LINE
8
0
10
30.802124
20
112.25201
30
-433.0127
11
31.802124
21
112.72077
31
-433.0127
0
LINE
8
0
10
31.802124
20
112.72077
30
-433.0127
11
32.802124
21
113.27533
31
-433.0127
0
LINE
8
0
10
32.802124
20
113.27533
30
-433.0127
11
33.802124
21
113.91015
31
-433.0127
0
LINE
8
0
10
33.802124
20
113.91015
30
-433.0127
11
34.802124
21
114.61888
31
-433.0127
0
LINE
8
0
10
34.802124
20
114.61888
30
-433.0127
11
35.802124
21
115.39444
31
-433.0127
0
LINE
8
0
10
35.802124
20
115.39444
30
-433.0127
11
36.802124
21
116.22909
31
-433.0127
0
LINE
8
0
10
36.802124
20
116.22909
30
-433.0127
11
37.802124
21
117.11447
31
-433.0127
0
LINE
8
0
10
37.802124
20
117.11447
30
-433.0127
11
38.802124
21
118.041756
31
-433.0127
0
LINE
8
0
10
38.802124
20
118.041756
30
-433.0127
11
39.802124
21
119.00167
31
-433.0127
0
LINE
8
0
10
39.802124
20
119.00167
30
-433.0127
11
40.802124
21
119.98463
31
-433.0127
0
LINE
8
0
10
40.802124
20
119.98463
30
-433.0127
11
41.802124
21
120.9808
31
-433.0127
0
ENDSEC
0
EOF
